#N canvas 217 226 299 299 10;
#X obj 41 233 outlet~;
#X obj 118 233 outlet~;
#X obj 175 178 solo_box \$1;
#X obj 117 194 *~;
#X obj 40 194 *~;
#X obj 41 76 track_volume \$1;
#X obj 40 116 track_paning \$1;
#X obj 41 152 track_mute \$1;
#X obj 41 38 inlet~;
#X connect 2 0 4 1;
#X connect 2 0 3 1;
#X connect 3 0 1 0;
#X connect 4 0 0 0;
#X connect 5 0 6 0;
#X connect 6 0 7 0;
#X connect 6 1 7 1;
#X connect 7 0 4 0;
#X connect 7 1 3 0;
#X connect 8 0 5 0;
