#N canvas 151 224 509 489 10;
#X msg 86 191 open /home/pi/audiosamples/kick.wav;
#X obj 155 267 readsf~;
#X obj 90 445 dac~;
#X msg 188 222 1;
#X msg 229 222 0;
#X obj 86 134 bng 15 250 50 0 empty empty empty 17 7 0 10 -262144 -1
-1;
#X obj 188 147 delay 2000;
#X obj 89 267 readsf~;
#X obj 222 268 readsf~;
#X obj 90 413 *~ 1;
#X obj 89 343 *~ 1;
#X obj 152 378 limiter;
#X obj 86 88 metro 5000;
#X obj 86 44 tgl 15 0 empty empty empty 17 7 0 10 -262144 -1 -1 1 1
;
#X obj 285 268 readsf~;
#X connect 0 0 1 0;
#X connect 0 0 7 0;
#X connect 0 0 8 0;
#X connect 0 0 14 0;
#X connect 1 0 10 0;
#X connect 3 0 1 0;
#X connect 3 0 7 0;
#X connect 3 0 8 0;
#X connect 3 0 14 0;
#X connect 4 0 1 0;
#X connect 5 0 6 0;
#X connect 5 0 0 0;
#X connect 6 0 3 0;
#X connect 7 0 10 0;
#X connect 8 0 10 0;
#X connect 9 0 2 1;
#X connect 9 0 2 0;
#X connect 10 0 11 0;
#X connect 11 0 9 0;
#X connect 12 0 5 0;
#X connect 13 0 12 0;
#X connect 14 0 10 0;
