#N canvas 540 449 627 571 10;
#X obj 107 100 inlet~;
#X obj 183 176 env~ 1024;
#X floatatom 183 199 5 0 0 0 - - -;
#X obj 183 221 moses;
#X floatatom 210 261 5 0 0 0 - - -;
#X obj 210 283 expr (($f1 - $f3) / $f2) -$f1 +$f3;
#X floatatom 210 306 5 0 0 0 - - -;
#X obj 210 328 expr 100 + $f1;
#X floatatom 210 351 5 0 0 0 - - -;
#X obj 210 373 dbtorms;
#X floatatom 210 396 5 0 0 0 - - -;
#X obj 183 249 bng 15 250 50 0 empty empty empty 17 7 0 10 -262144
-1 -1;
#X msg 183 396 1;
#X floatatom 310 91 5 0 0 0 - - -;
#X msg 310 68 10;
#X obj 310 30 loadbang;
#X obj 43 531 outlet~;
#X obj 44 499 *~;
#X floatatom 43 259 5 0 0 0 - - -;
#X msg 90 428 \$1 20;
#X msg 208 422 \$1 20;
#X obj 90 470 line~;
#X obj 44 204 delwrite~ comp\$0 100;
#X obj 43 281 delread~ comp\$0;
#X floatatom 247 206 5 0 0 0 - - -;
#X obj 43 20 loadbang;
#X msg 43 55 40, f 2;
#X obj 247 25 loadbang;
#X msg 247 60 90, f 2;
#X connect 0 0 1 0;
#X connect 0 0 22 0;
#X connect 1 0 2 0;
#X connect 2 0 3 0;
#X connect 3 0 11 0;
#X connect 3 1 4 0;
#X connect 4 0 5 0;
#X connect 5 0 6 0;
#X connect 6 0 7 0;
#X connect 7 0 8 0;
#X connect 8 0 9 0;
#X connect 9 0 10 0;
#X connect 10 0 20 0;
#X connect 11 0 12 0;
#X connect 12 0 19 0;
#X connect 13 0 5 1;
#X connect 14 0 13 0;
#X connect 15 0 14 0;
#X connect 17 0 16 0;
#X connect 18 0 23 0;
#X connect 19 0 21 0;
#X connect 20 0 21 0;
#X connect 21 0 17 1;
#X connect 23 0 17 0;
#X connect 24 0 3 1;
#X connect 24 0 5 2;
#X connect 25 0 26 0;
#X connect 26 0 18 0;
#X connect 27 0 28 0;
#X connect 28 0 24 0;
