#N canvas 166 145 718 790 10;
#X obj 101 502 print done;
#X obj 48 471 textfile;
#X msg 156 453 bang;
#X msg 156 414 rewind;
#X obj 48 535 list;
#X msg 48 373 read /home/pi/btm/saves/13-4_9:51/main.txt;
#X obj 147 552 list length;
#X floatatom 147 585 5 0 0 0 - - -, f 5;
#X obj 48 629 print loadtext;
#X obj 43 111 oscparse;
#X obj 43 86 netreceive -u -b;
#X msg 43 60 listen 12000;
#X obj 43 25 loadbang;
#X obj 121 26 bng 15 250 50 0 empty empty empty 17 7 0 10 -262144 -1
-1;
#X msg 43 136 \; \$1 symbol \$2;
#X obj 48 254 makefilename %s/main.txt;
#X obj 48 279 list;
#X msg 48 303 set read \$1;
#X obj 202 102 r load;
#X msg 202 136 \; \$1 bang \;;
#X obj 58 326 r main;
#X obj 58 349 bng 15 250 50 0 empty empty empty 17 7 0 10 -262144 -1
-1;
#X text 199 75 demande a pd de se mettre a jour;
#X text 158 25 envoi l'argument (load ou path) à la cmd;
#X msg 62 575 \; \$1_\$2 \$3;
#X obj 48 232 loadbang;
#X msg 196 299;
#X connect 1 0 2 0;
#X connect 1 0 4 0;
#X connect 1 1 0 0;
#X connect 2 0 1 0;
#X connect 3 0 1 0;
#X connect 3 0 2 0;
#X connect 4 0 6 0;
#X connect 4 0 8 0;
#X connect 4 0 24 0;
#X connect 5 0 1 0;
#X connect 5 0 3 0;
#X connect 6 0 7 0;
#X connect 9 0 14 0;
#X connect 10 0 9 0;
#X connect 11 0 10 0;
#X connect 12 0 11 0;
#X connect 13 0 11 0;
#X connect 15 0 16 0;
#X connect 16 0 17 0;
#X connect 17 0 5 0;
#X connect 18 0 19 0;
#X connect 20 0 21 0;
#X connect 21 0 5 0;
#X connect 25 0 15 0;
