#N canvas 200 169 608 612 10;
#X obj 89 370 print done;
#X obj 36 339 textfile;
#X msg 144 321 bang;
#X msg 144 282 rewind;
#X obj 36 403 list;
#X msg 36 439 \; \$1 \$2;
#X floatatom 413 512 5 0 0 0 - - -, f 5;
#X obj 232 495 receive nb_track;
#X obj 36 205 bng 15 250 50 0 empty empty empty 17 7 0 10 -262144 -1
-1;
#X text 126 540 ci dessus a repartir dans leur objet respectif;
#X msg 36 241 read /home/pi/btm/saves/27-3_18:10/main.txt;
#X obj 144 100 list;
#X msg 144 188 set read \$1;
#X obj 36 83 receive python;
#X obj 135 420 list length;
#X floatatom 135 453 5 0 0 0 - - -, f 5;
#X obj 144 143 route list;
#X connect 1 0 2 0;
#X connect 1 0 4 0;
#X connect 1 1 0 0;
#X connect 2 0 1 0;
#X connect 3 0 1 0;
#X connect 3 0 2 0;
#X connect 4 0 5 0;
#X connect 4 0 14 0;
#X connect 7 0 6 0;
#X connect 8 0 10 0;
#X connect 10 0 1 0;
#X connect 10 0 3 0;
#X connect 11 0 16 0;
#X connect 12 0 10 0;
#X connect 12 0 8 0;
#X connect 13 0 11 0;
#X connect 14 0 15 0;
#X connect 16 0 12 0;
