#N canvas 69 659 380 289 10;
#X obj 29 34 loadbang;
#X msg 29 55 \; pd dsp 1 \;;
#X obj 29 91 loader;
#X obj 223 168 master;
#X obj 29 111 sequencer;
#X obj 28 152 track 1;
#X obj 88 152 track 2;
#X obj 150 152 track 3;
#X connect 0 0 1 0;
#X connect 5 0 3 0;
#X connect 5 1 3 1;
#X connect 6 0 3 0;
#X connect 6 1 3 1;
#X connect 7 0 3 0;
#X connect 7 1 3 1;
