#N canvas 67 659 869 221 10;
#X obj 29 34 loadbang;
#X msg 29 55 \; pd dsp 1 \;;
#X obj 29 91 loader;
#X obj 627 168 master;
#X obj 29 111 sequencer;
#X obj 28 152 track 1;
#X obj 88 152 track 2;
#X obj 150 152 track 3;
#X obj 211 152 track 4;
#X obj 273 152 track 5;
#X obj 333 152 track 6;
#X obj 395 152 track 7;
#X obj 455 152 track 8;
#X obj 517 152 track 9;
#X text 208 38 debug sur le solo : si j'active ou desactive le mute
d'une autre piste le solo se desactive total;
#X connect 0 0 1 0;
#X connect 5 0 3 0;
#X connect 5 1 3 1;
#X connect 6 0 3 0;
#X connect 6 1 3 1;
#X connect 7 0 3 0;
#X connect 7 1 3 1;
#X connect 8 0 3 0;
#X connect 8 1 3 1;
#X connect 9 0 3 0;
#X connect 9 1 3 1;
#X connect 10 0 3 0;
#X connect 10 1 3 1;
#X connect 11 0 3 0;
#X connect 11 1 3 1;
#X connect 12 0 3 0;
#X connect 12 1 3 1;
#X connect 13 0 3 0;
#X connect 13 1 3 1;
