#N canvas 461 216 702 353 10;
#X obj 29 34 loadbang;
#X msg 29 55 \; pd dsp 1 \;;
#X obj 559 303 master, f 8;
#X obj 29 111 sequencer;
#X obj 28 152 track 1, f 6;
#X obj 558 183 *~ 1;
#X obj 611 183 *~ 1;
#X obj 559 223 *~ 1;
#X obj 612 223 *~ 1;
#X obj 558 262 *~ 1;
#X obj 611 262 *~ 1;
#X obj 29 91 osc;
#X obj 77 152 track 2, f 6;
#X obj 126 152 track 3, f 6;
#X obj 175 152 track 4, f 6;
#X obj 224 152 track 5, f 6;
#X obj 273 152 track 6, f 6;
#X obj 322 152 track 7, f 6;
#X obj 371 152 track 8, f 6;
#X obj 420 152 track 9, f 6;
#X obj 470 152 track 10, f 6;
#X obj 29 192 track 11, f 6;
#X obj 78 192 track 12, f 6;
#X obj 127 192 track 13, f 6;
#X obj 176 192 track 14, f 6;
#X obj 225 192 track 15, f 6;
#X obj 274 192 track 16, f 6;
#X obj 323 192 track 17, f 6;
#X obj 372 192 track 18, f 6;
#X obj 421 192 track 19, f 6;
#X obj 470 192 track 20, f 6;
#X obj 28 231 track 21, f 6;
#X obj 77 231 track 22, f 6;
#X obj 126 231 track 23, f 6;
#X obj 175 231 track 24, f 6;
#X obj 224 231 track 25, f 6;
#X obj 273 231 track 26, f 6;
#X obj 322 231 track 27, f 6;
#X obj 371 231 track 28, f 6;
#X obj 420 231 track 29, f 6;
#X obj 469 231 track 30, f 6;
#X text 162 67 debug sur le solo : si j'active ou desactive le mute
d'une autre piste le solo se desactive total : obselette?;
#X obj 28 285 audio_test;
#X connect 0 0 1 0;
#X connect 4 0 5 0;
#X connect 4 1 6 0;
#X connect 5 0 2 0;
#X connect 6 0 2 1;
#X connect 7 0 2 0;
#X connect 8 0 2 1;
#X connect 9 0 2 0;
#X connect 10 0 2 1;
#X connect 12 0 5 0;
#X connect 12 1 6 0;
#X connect 13 0 5 0;
#X connect 13 1 6 0;
#X connect 14 0 5 0;
#X connect 14 1 6 0;
#X connect 15 0 5 0;
#X connect 15 1 6 0;
#X connect 16 0 5 0;
#X connect 16 1 6 0;
#X connect 17 0 5 0;
#X connect 17 1 6 0;
#X connect 18 0 5 0;
#X connect 18 1 6 0;
#X connect 19 0 5 0;
#X connect 19 1 6 0;
#X connect 20 0 5 0;
#X connect 20 1 6 0;
#X connect 21 0 7 0;
#X connect 21 1 8 0;
#X connect 22 0 7 0;
#X connect 22 1 8 0;
#X connect 23 0 7 0;
#X connect 23 1 8 0;
#X connect 24 0 7 0;
#X connect 24 1 8 0;
#X connect 25 0 7 0;
#X connect 25 1 8 0;
#X connect 26 0 7 0;
#X connect 26 1 8 0;
#X connect 27 0 7 0;
#X connect 27 1 8 0;
#X connect 28 0 7 0;
#X connect 28 1 8 0;
#X connect 29 0 7 0;
#X connect 29 1 8 0;
#X connect 30 0 7 0;
#X connect 30 1 8 0;
#X connect 31 0 9 0;
#X connect 31 1 10 0;
#X connect 32 0 9 0;
#X connect 32 1 10 0;
#X connect 33 0 9 0;
#X connect 33 1 10 0;
#X connect 34 0 9 0;
#X connect 34 1 10 0;
#X connect 35 0 9 0;
#X connect 35 1 10 0;
#X connect 36 0 9 0;
#X connect 36 1 10 0;
#X connect 37 0 9 0;
#X connect 37 1 10 0;
#X connect 38 0 9 0;
#X connect 38 1 10 0;
#X connect 39 0 9 0;
#X connect 39 1 10 0;
#X connect 40 0 9 0;
#X connect 40 1 10 0;
