#N canvas 397 270 413 406 10;
#X obj 62 361 dac~, f 9;
#X obj 62 139 *~;
#X floatatom 194 147 5 0 0 0 - - -, f 5;
#X obj 120 139 *~;
#X obj 62 44 inlet~;
#X obj 120 76 inlet~;
#X obj 194 122 receive vol;
#X obj 168 179 receive pan;
#X obj 168 203 pan_box;
#X obj 61 219 *~;
#X obj 119 219 *~;
#X floatatom 270 196 5 0 0 0 - - -, f 5;
#X obj 168 237 receive mute;
#X obj 61 278 *~;
#X obj 119 278 *~;
#X obj 168 261 mute_box;
#X connect 1 0 9 0;
#X connect 3 0 10 0;
#X connect 4 0 1 0;
#X connect 5 0 3 0;
#X connect 6 0 2 0;
#X connect 6 0 1 1;
#X connect 6 0 3 1;
#X connect 7 0 8 0;
#X connect 7 0 11 0;
#X connect 8 0 9 1;
#X connect 8 1 10 1;
#X connect 9 0 13 0;
#X connect 10 0 14 0;
#X connect 12 0 15 0;
#X connect 13 0 0 0;
#X connect 14 0 0 1;
#X connect 15 0 14 1;
#X connect 15 0 13 1;
