#N canvas 395 270 413 406 10;
#X obj 62 361 dac~, f 9;
#X obj 62 139 *~;
#X floatatom 169 147 5 0 0 0 - - -, f 5;
#X obj 120 139 *~;
#X obj 62 44 inlet~;
#X obj 120 76 inlet~;
#X obj 168 203 pan_box;
#X obj 61 219 *~;
#X obj 119 219 *~;
#X floatatom 270 196 5 0 0 0 - - -, f 5;
#X obj 61 278 *~;
#X obj 119 278 *~;
#X obj 168 261 mute_box;
#X obj 169 122 receive master_vol;
#X obj 168 179 receive master_pan;
#X obj 168 237 receive master_mute;
#X connect 1 0 7 0;
#X connect 3 0 8 0;
#X connect 4 0 1 0;
#X connect 5 0 3 0;
#X connect 6 0 7 1;
#X connect 6 1 8 1;
#X connect 7 0 10 0;
#X connect 8 0 11 0;
#X connect 10 0 0 0;
#X connect 11 0 0 1;
#X connect 12 0 11 1;
#X connect 12 0 10 1;
#X connect 13 0 2 0;
#X connect 13 0 1 1;
#X connect 13 0 3 1;
#X connect 14 0 6 0;
#X connect 14 0 9 0;
#X connect 15 0 12 0;
