#N canvas 395 428 413 596 10;
#X obj 60 518 dac~, f 10;
#X obj 62 222 *~;
#X obj 120 222 *~;
#X obj 62 44 inlet~;
#X obj 118 66 inlet~;
#X obj 170 286 pan_box;
#X obj 61 302 *~;
#X obj 119 302 *~;
#X obj 61 361 *~;
#X obj 119 361 *~;
#X obj 168 344 mute_box;
#X obj 169 206 receive master_vol;
#X obj 170 262 receive master_pan;
#X obj 168 320 receive master_mute;
#X floatatom 169 236 5 0 0 0 - - -;
#X floatatom 228 286 5 0 0 0 - - -;
#X floatatom 170 182 5 0 0 0 - - -;
#X floatatom 170 129 5 0 0 0 - - -;
#X obj 170 99 receive master_hpf;
#X obj 170 152 receive master_lpf;
#X obj 62 115 hip~;
#X obj 119 115 hip~;
#X obj 63 169 lop~;
#X obj 120 169 lop~;
#X obj 224 447 recorder;
#X obj 61 430 limiter;
#X obj 120 431 limiter;
#X obj 60 398 *~ 3;
#X obj 120 398 *~ 3;
#X text 163 397 caliente;
#X connect 1 0 6 0;
#X connect 2 0 7 0;
#X connect 3 0 20 0;
#X connect 4 0 21 0;
#X connect 5 0 6 1;
#X connect 5 1 7 1;
#X connect 6 0 8 0;
#X connect 7 0 9 0;
#X connect 8 0 27 0;
#X connect 9 0 28 0;
#X connect 10 0 9 1;
#X connect 10 0 8 1;
#X connect 11 0 1 1;
#X connect 11 0 2 1;
#X connect 11 0 14 0;
#X connect 12 0 5 0;
#X connect 12 0 15 0;
#X connect 13 0 10 0;
#X connect 18 0 17 0;
#X connect 18 0 21 1;
#X connect 18 0 20 1;
#X connect 19 0 16 0;
#X connect 19 0 23 1;
#X connect 19 0 22 1;
#X connect 20 0 22 0;
#X connect 21 0 23 0;
#X connect 22 0 1 0;
#X connect 23 0 2 0;
#X connect 25 0 0 0;
#X connect 25 0 24 0;
#X connect 26 0 24 1;
#X connect 26 0 0 1;
#X connect 27 0 25 0;
#X connect 28 0 26 0;
