#N canvas 151 412 413 230 10;
#X obj 61 175 dac~, f 9;
#X obj 62 139 *~;
#X floatatom 194 147 5 0 0 0 - - -, f 5;
#X obj 120 139 *~;
#X obj 62 44 inlet~;
#X obj 120 76 inlet~;
#X obj 194 122 receive main_master;
#X connect 1 0 0 0;
#X connect 3 0 0 1;
#X connect 4 0 1 0;
#X connect 5 0 3 0;
#X connect 6 0 2 0;
#X connect 6 0 1 1;
#X connect 6 0 3 1;
