#N canvas 153 412 413 230 10;
#X obj 62 44 receive left;
#X obj 120 76 receive right;
#X obj 61 175 dac~, f 9;
#X obj 194 122 receive master;
#X obj 62 139 *~;
#X floatatom 194 147 5 0 0 0 - - -, f 5;
#X obj 120 139 *~;
#X connect 0 0 4 0;
#X connect 1 0 6 0;
#X connect 3 0 5 0;
#X connect 3 0 4 1;
#X connect 3 0 6 1;
#X connect 4 0 2 0;
#X connect 6 0 2 1;
