#N canvas 2 127 375 223 10;
#X obj 42 63 select 0;
#X msg 42 86 1;
#X msg 95 86 0;
#X obj 42 139 line~;
#X obj 42 115 pack f 50;
#X obj 43 167 outlet~;
#X obj 42 33 inlet;
#X obj 190 76 r tick_length;
#X floatatom 190 125 5 0 0 0 - - -, f 5;
#X obj 190 102 / 4;
#X connect 0 0 1 0;
#X connect 0 1 2 0;
#X connect 1 0 4 0;
#X connect 2 0 4 0;
#X connect 3 0 5 0;
#X connect 4 0 3 0;
#X connect 6 0 0 0;
#X connect 7 0 9 0;
#X connect 8 0 3 1;
#X connect 9 0 8 0;
