#N canvas 555 53 705 726 10;
#X obj 58 278 textfile;
#X msg 126 260 bang;
#X msg 126 225 rewind;
#X msg 58 200 read /home/pi/btm/set/track_1_notes.txt;
#X obj 182 327 r pas;
#X obj 58 383 route;
#X obj 58 508 s play_note_\$1;
#X obj 250 242 r track_\$1_mesure;
#X obj 250 299 *;
#X obj 286 284 bng 15 250 50 0 empty empty empty 17 7 0 10 -262144
-1 -1;
#X floatatom 250 322 5 0 0 0 - - -, f 5;
#X obj 232 344 %;
#X floatatom 232 369 5 0 0 0 - - -, f 5;
#X obj 381 295 list;
#X msg 381 319 \$1;
#X obj 381 340 - 1;
#X obj 381 364 moses 0;
#X obj 381 413 f;
#X obj 381 389 bng 15 250 50 0 empty empty empty 17 7 0 10 -262144
-1 -1;
#X obj 381 461 route;
#X obj 247 396 - 1;
#X obj 524 380 r tick_length;
#X obj 471 530 pack f f;
#X floatatom 524 429 5 0 0 0 - - -, f 5;
#X obj 460 435 -;
#X floatatom 460 473 5 0 0 0 - - -, f 5;
#X obj 381 487 delay;
#X msg 381 513 0;
#X obj 524 406 / 4;
#X obj 460 411 pipe 1;
#X obj 111 300 bng 15 250 50 0 empty empty empty 17 7 0 10 -262144
-1 -1;
#X obj 58 470 bng 15 250 50 0 empty empty empty 17 7 0 10 -262144 -1
-1;
#X obj 58 84 bng 15 250 50 0 empty empty empty 17 7 0 10 -262144 -1
-1;
#X obj 205 108 \$1;
#X obj 272 93 bng 15 250 50 0 empty empty empty 17 7 0 10 -262144 -1
-1;
#X msg 205 150 set read /home/pi/btm/set/\$1.txt;
#X obj 205 56 loadbang;
#X obj 205 129 makefilename track_%d_notes;
#X obj 286 263 r temps;
#X obj 58 54 r pas;
#X msg 58 431 \; \$1_\$2 \$3;
#X obj 471 558 s track_\$1_note_vol;
#X connect 0 0 1 0;
#X connect 0 0 13 0;
#X connect 0 0 5 0;
#X connect 0 1 30 0;
#X connect 1 0 0 0;
#X connect 2 0 0 0;
#X connect 2 0 1 0;
#X connect 3 0 0 0;
#X connect 3 0 2 0;
#X connect 4 0 11 0;
#X connect 5 0 40 0;
#X connect 7 0 8 0;
#X connect 8 0 10 0;
#X connect 9 0 8 0;
#X connect 10 0 11 1;
#X connect 10 0 20 0;
#X connect 11 0 12 0;
#X connect 12 0 5 1;
#X connect 12 0 19 1;
#X connect 13 0 14 0;
#X connect 14 0 15 0;
#X connect 15 0 16 0;
#X connect 16 0 18 0;
#X connect 16 1 19 0;
#X connect 17 0 19 0;
#X connect 18 0 17 0;
#X connect 19 0 26 0;
#X connect 20 0 17 1;
#X connect 21 0 28 0;
#X connect 21 0 29 0;
#X connect 22 0 41 0;
#X connect 23 0 22 1;
#X connect 24 0 25 0;
#X connect 25 0 26 1;
#X connect 26 0 27 0;
#X connect 27 0 22 0;
#X connect 28 0 23 0;
#X connect 28 0 24 1;
#X connect 29 0 24 0;
#X connect 31 0 6 0;
#X connect 32 0 3 0;
#X connect 33 0 37 0;
#X connect 34 0 33 0;
#X connect 35 0 3 0;
#X connect 36 0 33 0;
#X connect 37 0 35 0;
#X connect 38 0 8 1;
#X connect 38 0 9 0;
#X connect 39 0 32 0;
#X connect 40 0 31 0;
