#N canvas 2 73 543 663 10;
#X obj 55 283 textfile;
#X msg 123 265 bang;
#X msg 123 230 rewind;
#X msg 55 205 read /home/pi/btm/saves/14-4_1:44/notes_1.txt;
#X obj 55 85 list;
#X msg 55 109 set read \$1;
#X obj 55 38 r path;
#X obj 65 181 bng 15 250 50 0 empty empty empty 17 7 0 10 -262144 -1
-1;
#X obj 55 60 makefilename %s/notes_\$1.txt;
#X obj 65 132 r pas;
#X obj 179 332 r pas;
#X obj 55 345 route notes_\$1;
#X obj 55 388 route;
#X obj 55 415 unpack f f f f f;
#X obj 306 432 bng 15 250 50 0 empty empty empty 17 7 0 10 -262144
-1 -1;
#X obj 306 483 s play_note_\$1;
#X obj 55 442 s vol_note_\$1;
#X obj 82 467 s pan_note_\$1;
#X obj 109 491 s speed_note_\$1;
#X obj 137 514 s begin_note_\$1;
#X obj 164 538 s end_note_\$1;
#X obj 247 247 r track_\$1_mesure;
#X obj 283 268 r main_temps;
#X obj 247 304 *;
#X obj 283 289 bng 15 250 50 0 empty empty empty 17 7 0 10 -262144
-1 -1;
#X floatatom 247 327 5 0 0 0 - - -, f 5;
#X obj 229 349 %;
#X floatatom 229 374 5 0 0 0 - - -, f 5;
#X connect 0 0 1 0;
#X connect 0 0 11 0;
#X connect 1 0 0 0;
#X connect 2 0 0 0;
#X connect 2 0 1 0;
#X connect 3 0 0 0;
#X connect 3 0 2 0;
#X connect 4 0 5 0;
#X connect 5 0 3 0;
#X connect 6 0 8 0;
#X connect 7 0 3 0;
#X connect 8 0 4 0;
#X connect 9 0 7 0;
#X connect 10 0 26 0;
#X connect 11 0 12 0;
#X connect 12 0 13 0;
#X connect 13 0 14 0;
#X connect 13 0 16 0;
#X connect 13 1 17 0;
#X connect 13 2 18 0;
#X connect 13 3 19 0;
#X connect 13 4 20 0;
#X connect 14 0 15 0;
#X connect 21 0 23 0;
#X connect 22 0 23 1;
#X connect 22 0 24 0;
#X connect 23 0 25 0;
#X connect 24 0 23 0;
#X connect 25 0 26 1;
#X connect 26 0 27 0;
#X connect 27 0 12 1;
