#N canvas 293 143 750 808 10;
#X obj 58 278 textfile;
#X msg 126 260 bang;
#X msg 126 225 rewind;
#X msg 58 200 read /home/pi/btm/saves/ab/notes_5.txt;
#X obj 287 174 bng 15 250 50 0 empty empty empty 17 7 0 10 -262144
-1 -1;
#X obj 287 111 r pas, f 6;
#X obj 182 327 r pas;
#X obj 58 340 route notes_\$1;
#X obj 58 383 route;
#X obj 241 552 s play_note_\$1;
#X obj 58 511 s vol_note_\$1;
#X obj 82 533 s pan_note_\$1;
#X obj 156 599 s begin_note_\$1;
#X obj 250 242 r track_\$1_mesure;
#X obj 286 263 r main_temps;
#X obj 250 299 *;
#X obj 286 284 bng 15 250 50 0 empty empty empty 17 7 0 10 -262144
-1 -1;
#X floatatom 250 322 5 0 0 0 - - -, f 5;
#X obj 232 344 %;
#X floatatom 232 369 5 0 0 0 - - -, f 5;
#X obj 58 57 r path;
#X obj 58 105 list;
#X msg 58 129 set read \$1;
#X obj 58 80 makefilename %s/notes_\$1.txt;
#X obj 58 484 unpack f f f f f f;
#X obj 107 555 s pitch_note_\$1;
#X obj 132 577 s tone_note_\$1;
#X obj 181 621 s length_note_\$1;
#X obj 340 39 r main_nb_tracks;
#X obj 340 68 moses \$1;
#X msg 340 101 0;
#X msg 387 101 1, f 2;
#X obj 287 150 spigot 0;
#X obj 394 357 list;
#X msg 394 381 \$1;
#X obj 394 402 - 1;
#X obj 394 426 moses 0;
#X obj 394 475 f;
#X obj 394 451 bng 15 250 50 0 empty empty empty 17 7 0 10 -262144
-1 -1;
#X obj 394 523 route;
#X obj 332 402 - 1;
#X obj 537 482 r tick_length;
#X obj 484 632 pack f f;
#X floatatom 537 531 5 0 0 0 - - -, f 5;
#X obj 473 537 -;
#X floatatom 473 575 5 0 0 0 - - -, f 5;
#X obj 394 589 delay;
#X msg 394 615 0;
#X obj 484 660 s vol_note_\$1;
#X obj 537 508 / 4;
#X obj 473 513 pipe 1;
#X obj 241 501 bng 15 250 50 0 empty empty empty 17 7 0 10 -262144
-1 -1;
#X text 44 652 length est envoyé trop tard \, il faut gerer l'ordre
d'envoi avec untriger ou quoi, f 36;
#X connect 0 0 1 0;
#X connect 0 0 7 0;
#X connect 1 0 0 0;
#X connect 2 0 0 0;
#X connect 2 0 1 0;
#X connect 3 0 0 0;
#X connect 3 0 2 0;
#X connect 4 0 3 0;
#X connect 5 0 32 0;
#X connect 6 0 18 0;
#X connect 7 0 8 0;
#X connect 7 0 33 0;
#X connect 8 0 24 0;
#X connect 13 0 15 0;
#X connect 14 0 15 1;
#X connect 14 0 16 0;
#X connect 15 0 17 0;
#X connect 16 0 15 0;
#X connect 17 0 18 1;
#X connect 17 0 40 0;
#X connect 18 0 19 0;
#X connect 19 0 8 1;
#X connect 19 0 39 1;
#X connect 20 0 23 0;
#X connect 21 0 22 0;
#X connect 22 0 3 0;
#X connect 23 0 21 0;
#X connect 24 0 10 0;
#X connect 24 0 51 0;
#X connect 24 1 11 0;
#X connect 24 2 25 0;
#X connect 24 3 26 0;
#X connect 24 4 12 0;
#X connect 24 5 27 0;
#X connect 28 0 29 0;
#X connect 29 0 30 0;
#X connect 29 1 31 0;
#X connect 30 0 32 1;
#X connect 31 0 32 1;
#X connect 32 0 4 0;
#X connect 33 0 34 0;
#X connect 34 0 35 0;
#X connect 35 0 36 0;
#X connect 36 0 38 0;
#X connect 36 1 39 0;
#X connect 37 0 39 0;
#X connect 38 0 37 0;
#X connect 39 0 46 0;
#X connect 40 0 37 1;
#X connect 41 0 49 0;
#X connect 41 0 50 0;
#X connect 42 0 48 0;
#X connect 43 0 42 1;
#X connect 44 0 45 0;
#X connect 45 0 46 1;
#X connect 46 0 47 0;
#X connect 47 0 42 0;
#X connect 49 0 43 0;
#X connect 49 0 44 1;
#X connect 50 0 44 0;
#X connect 51 0 9 0;
