#N canvas 581 207 543 663 10;
#X obj 58 278 textfile;
#X msg 126 260 bang;
#X msg 126 225 rewind;
#X msg 58 200 read /home/pi/btm/saves/default/notes_1.txt;
#X obj 287 174 bng 15 250 50 0 empty empty empty 17 7 0 10 -262144
-1 -1;
#X obj 287 111 r pas, f 6;
#X obj 182 327 r pas;
#X obj 58 340 route notes_\$1;
#X obj 58 383 route;
#X obj 309 427 bng 15 250 50 0 empty empty empty 17 7 0 10 -262144
-1 -1;
#X obj 309 478 s play_note_\$1;
#X obj 58 437 s vol_note_\$1;
#X obj 82 459 s pan_note_\$1;
#X obj 156 525 s begin_note_\$1;
#X obj 250 242 r track_\$1_mesure;
#X obj 286 263 r main_temps;
#X obj 250 299 *;
#X obj 286 284 bng 15 250 50 0 empty empty empty 17 7 0 10 -262144
-1 -1;
#X floatatom 250 322 5 0 0 0 - - -, f 5;
#X obj 232 344 %;
#X floatatom 232 369 5 0 0 0 - - -, f 5;
#X obj 58 57 r path;
#X obj 58 105 list;
#X msg 58 129 set read \$1;
#X obj 58 80 makefilename %s/notes_\$1.txt;
#X obj 58 410 unpack f f f f f f;
#X obj 107 481 s pitch_note_\$1;
#X obj 132 503 s tone_note_\$1;
#X obj 181 547 s length_note_\$1;
#X obj 340 39 r main_nb_tracks;
#X obj 340 68 moses \$1;
#X msg 340 101 0;
#X msg 387 101 1, f 2;
#X obj 287 150 spigot 0;
#X connect 0 0 1 0;
#X connect 0 0 7 0;
#X connect 1 0 0 0;
#X connect 2 0 0 0;
#X connect 2 0 1 0;
#X connect 3 0 0 0;
#X connect 3 0 2 0;
#X connect 4 0 3 0;
#X connect 5 0 33 0;
#X connect 6 0 19 0;
#X connect 7 0 8 0;
#X connect 8 0 25 0;
#X connect 9 0 10 0;
#X connect 14 0 16 0;
#X connect 15 0 16 1;
#X connect 15 0 17 0;
#X connect 16 0 18 0;
#X connect 17 0 16 0;
#X connect 18 0 19 1;
#X connect 19 0 20 0;
#X connect 20 0 8 1;
#X connect 21 0 24 0;
#X connect 22 0 23 0;
#X connect 23 0 3 0;
#X connect 24 0 22 0;
#X connect 25 0 11 0;
#X connect 25 0 9 0;
#X connect 25 1 12 0;
#X connect 25 2 26 0;
#X connect 25 3 27 0;
#X connect 25 4 13 0;
#X connect 25 5 28 0;
#X connect 29 0 30 0;
#X connect 30 0 31 0;
#X connect 30 1 32 0;
#X connect 31 0 33 1;
#X connect 32 0 33 1;
#X connect 33 0 4 0;
