#N canvas 491 196 698 444 10;
#X obj 425 55 r master_pas;
#X floatatom 425 77 5 0 0 0 - - -;
#X obj 425 99 tabread notes_\$1_vol;
#X obj 425 123 route 0;
#X obj 47 62 tabread notes_\$1_vol;
#X obj 47 85 s track_\$1_note_vol;
#X obj 390 287 table notes_\$1_vol;
#X obj 390 308 table notes_\$1_mute;
#X obj 390 330 table notes_\$1_solo;
#X obj 390 352 table notes_\$1_pan;
#X obj 389 374 table notes_\$1_pitch;
#X obj 534 286 table notes_\$1_tone;
#X obj 534 308 table notes_\$1_s_begin;
#X obj 534 330 table notes_\$1_s_end;
#X obj 533 352 table notes_\$1_lpf;
#X obj 533 374 table notes_\$1_hpf;
#X obj 410 228 s pas_\$1;
#X obj 47 40 r pas_\$1;
#X obj 47 112 r pas_\$1;
#X obj 47 184 r pas_\$1;
#X obj 47 256 r pas_\$1;
#X obj 47 329 r pas_\$1;
#X obj 202 40 r pas_\$1;
#X obj 202 112 r pas_\$1;
#X obj 202 184 r pas_\$1;
#X obj 202 256 r pas_\$1;
#X obj 202 329 r pas_\$1;
#X obj 47 134 tabread notes_\$1_mute;
#X obj 47 157 s track_\$1_note_mute;
#X obj 47 206 tabread notes_\$1_solo;
#X obj 47 229 s track_\$1_note_solo;
#X obj 47 278 tabread notes_\$1_pan;
#X obj 47 301 s track_\$1_note_pan;
#X obj 47 351 tabread notes_\$1_pitch;
#X obj 47 374 s track_\$1_note_pitch;
#X obj 202 62 tabread notes_\$1_tone;
#X obj 202 85 s track_\$1_note_tone;
#X obj 202 134 tabread notes_\$1_s_begin;
#X obj 202 157 s track_\$1_note_s_begin;
#X obj 202 206 tabread notes_\$1_s_end;
#X obj 202 229 s track_\$1_note_s_end;
#X obj 202 278 tabread notes_\$1_lpf;
#X obj 202 301 s track_\$1_note_lpf;
#X obj 202 351 tabread notes_\$1_hpf;
#X obj 202 374 s track_\$1_note_hpf;
#X obj 410 200 f;
#X obj 463 162 delay 1;
#X obj 463 145 bng 15 250 50 0 empty empty empty 17 7 0 10 -262144
-1 -1;
#X obj 500 216 print pas_\$1;
#X connect 0 0 1 0;
#X connect 1 0 2 0;
#X connect 1 0 45 1;
#X connect 2 0 3 0;
#X connect 3 1 47 0;
#X connect 4 0 5 0;
#X connect 17 0 4 0;
#X connect 18 0 27 0;
#X connect 19 0 29 0;
#X connect 20 0 31 0;
#X connect 21 0 33 0;
#X connect 22 0 35 0;
#X connect 23 0 37 0;
#X connect 24 0 39 0;
#X connect 25 0 41 0;
#X connect 26 0 43 0;
#X connect 27 0 28 0;
#X connect 29 0 30 0;
#X connect 31 0 32 0;
#X connect 33 0 34 0;
#X connect 35 0 36 0;
#X connect 37 0 38 0;
#X connect 39 0 40 0;
#X connect 41 0 42 0;
#X connect 43 0 44 0;
#X connect 45 0 16 0;
#X connect 45 0 48 0;
#X connect 46 0 45 0;
#X connect 47 0 46 0;
