#N canvas 165 73 926 935 10;
#X obj 98 278 textfile;
#X msg 166 260 bang;
#X msg 166 225 rewind;
#X msg 98 200 read /home/pi/btm/set/notes_1.txt;
#X obj 187 319 r pas;
#X obj 98 375 route;
#X obj 22 461 s play_note_\$1, f 9;
#X obj 290 241 r track_\$1_mesure;
#X obj 290 299 *;
#X obj 326 284 bng 15 250 50 0 empty empty empty 17 7 0 10 -262144
-1 -1;
#X floatatom 290 322 5 0 0 0 - - -, f 5;
#X obj 237 336 %;
#X floatatom 237 361 5 0 0 0 - - -, f 5;
#X obj 421 295 list;
#X msg 421 319 \$1;
#X obj 421 340 - 1;
#X obj 421 364 moses 0;
#X obj 421 413 f;
#X obj 421 389 bng 15 250 50 0 empty empty empty 17 7 0 10 -262144
-1 -1;
#X obj 421 461 route;
#X obj 290 396 - 1;
#X obj 564 380 r tick_length;
#X obj 511 530 pack f f;
#X floatatom 564 429 5 0 0 0 - - -, f 5;
#X obj 500 435 -;
#X floatatom 500 473 5 0 0 0 - - -, f 5;
#X obj 421 487 delay;
#X msg 421 513 0;
#X obj 564 406 / 4;
#X obj 500 411 pipe 1;
#X obj 151 300 bng 15 250 50 0 empty empty empty 17 7 0 10 -262144
-1 -1;
#X obj 22 392 bng 15 250 50 0 empty empty empty 17 7 0 10 -262144 -1
-1;
#X obj 98 84 bng 15 250 50 0 empty empty empty 17 7 0 10 -262144 -1
-1;
#X obj 193 108 \$1;
#X obj 260 93 bng 15 250 50 0 empty empty empty 17 7 0 10 -262144 -1
-1;
#X msg 160 150 set read /home/pi/btm/set/\$1.txt;
#X obj 193 56 loadbang;
#X obj 326 263 r temps;
#X obj 98 54 r pas;
#X msg 112 516 \; \$1_\$2 \$3;
#X obj 511 558 s track_\$1_note_vol;
#X text 238 583 remet le volume a 0 un poil avant que la note soit
rejouée;
#X obj 98 407 list;
#X obj 112 438 list prepend;
#X obj 22 434 delay 1;
#N canvas 2 73 450 250 (subpatch) 0;
#X array notes_\$1_vol 128 float 2;
#X coords 0 2 128 -2 200 20 1 0 0;
#X restore 104 699 graph;
#X obj 193 129 makefilename notes_%d;
#X obj 235 472 print;
#X connect 0 0 1 0;
#X connect 0 0 13 0;
#X connect 0 0 5 0;
#X connect 0 1 30 0;
#X connect 1 0 0 0;
#X connect 2 0 0 0;
#X connect 2 0 1 0;
#X connect 3 0 0 0;
#X connect 3 0 2 0;
#X connect 4 0 11 0;
#X connect 5 0 42 0;
#X connect 5 0 31 0;
#X connect 7 0 8 0;
#X connect 8 0 10 0;
#X connect 9 0 8 0;
#X connect 10 0 11 1;
#X connect 10 0 20 0;
#X connect 11 0 12 0;
#X connect 12 0 5 1;
#X connect 12 0 19 1;
#X connect 13 0 14 0;
#X connect 14 0 15 0;
#X connect 15 0 16 0;
#X connect 16 0 18 0;
#X connect 16 1 19 0;
#X connect 17 0 19 0;
#X connect 18 0 17 0;
#X connect 19 0 26 0;
#X connect 20 0 17 1;
#X connect 21 0 28 0;
#X connect 21 0 29 0;
#X connect 22 0 40 0;
#X connect 23 0 22 1;
#X connect 24 0 25 0;
#X connect 25 0 26 1;
#X connect 26 0 27 0;
#X connect 27 0 22 0;
#X connect 28 0 23 0;
#X connect 28 0 24 1;
#X connect 29 0 24 0;
#X connect 31 0 44 0;
#X connect 32 0 3 0;
#X connect 33 0 46 0;
#X connect 34 0 33 0;
#X connect 35 0 3 0;
#X connect 36 0 33 0;
#X connect 37 0 8 1;
#X connect 37 0 9 0;
#X connect 38 0 32 0;
#X connect 42 0 43 0;
#X connect 43 0 47 0;
#X connect 44 0 6 0;
#X connect 46 0 35 0;
#X connect 46 0 43 1;
