#N canvas 92 270 512 375 10;
#X obj 43 111 oscparse;
#X obj 43 86 netreceive -u -b;
#X msg 43 60 listen 12000;
#X obj 43 25 loadbang;
#X obj 121 26 bng 15 250 50 0 empty empty empty 17 7 0 10 -262144 -1
-1;
#X obj 43 140 route list;
#X obj 43 219 list split 1;
#X msg 43 313 \; \$1 \$2;
#X obj 43 285 pack s f;
#X msg 43 255 master_\$1;
#X obj 183 127 print osc;
#X msg 174 214 list track_\$1_\$2 \$3;
#X obj 43 179 route master track note, f 66;
#X msg 174 245 \; \$1 \$2;
#X obj 305 213 osc_note;
#X connect 0 0 5 0;
#X connect 1 0 0 0;
#X connect 2 0 1 0;
#X connect 3 0 2 0;
#X connect 4 0 2 0;
#X connect 5 0 12 0;
#X connect 6 0 9 0;
#X connect 6 1 8 1;
#X connect 8 0 7 0;
#X connect 9 0 8 0;
#X connect 11 0 13 0;
#X connect 12 0 6 0;
#X connect 12 1 11 0;
#X connect 12 2 14 0;
