#N canvas 192 162 739 419 10;
#X obj 43 111 oscparse;
#X obj 43 86 netreceive -u -b;
#X msg 43 60 listen 12000;
#X obj 43 25 loadbang;
#X obj 121 26 bng 15 250 50 0 empty empty empty 17 7 0 10 -262144 -1
-1;
#X obj 43 140 route list;
#X obj 43 219 list split 1;
#X obj 196 219 list split 2;
#X msg 196 254 track_\$1_\$2;
#X msg 196 312 \; \$1 \$2;
#X obj 196 284 pack s f;
#X msg 43 313 \; \$1 \$2;
#X obj 43 285 pack s f;
#X msg 43 255 master_\$1;
#X obj 349 218 list split 2;
#X obj 43 179 route master track notes, f 66;
#X obj 349 350 tabwrite;
#X obj 384 284 list split 1;
#X floatatom 418 313 5 0 0 0 - - -;
#X floatatom 384 313 5 0 0 0 - - -;
#X msg 349 253 set notes_\$1_\$2;
#X obj 183 127 print osc;
#X connect 0 0 5 0;
#X connect 0 0 21 0;
#X connect 1 0 0 0;
#X connect 2 0 1 0;
#X connect 3 0 2 0;
#X connect 4 0 2 0;
#X connect 5 0 15 0;
#X connect 6 0 13 0;
#X connect 6 1 12 1;
#X connect 7 0 8 0;
#X connect 7 1 10 1;
#X connect 8 0 10 0;
#X connect 10 0 9 0;
#X connect 12 0 11 0;
#X connect 13 0 12 0;
#X connect 14 0 20 0;
#X connect 14 1 17 0;
#X connect 15 0 6 0;
#X connect 15 1 7 0;
#X connect 15 2 14 0;
#X connect 17 0 19 0;
#X connect 17 1 18 0;
#X connect 18 0 16 0;
#X connect 19 0 16 1;
#X connect 20 0 16 0;
