#N canvas 96 98 579 817 10;
#X obj 164 230 list split 1, f 19;
#X obj 151 143 list split 1;
#X obj 334 345 list split 1, f 31;
#X obj 164 395 f;
#X obj 334 304 list;
#X obj 164 189 list;
#X msg 50 159 set \$1;
#X text 289 306 notes, f 6;
#N canvas 0 50 450 250 (subpatch) 0;
#X array arraytest 10 float 3;
#A 0 1 2 3 4 5 4 5 0 1 5;
#X coords 0 10 10 -10 200 140 1 0 0;
#X restore 118 596 graph;
#X obj 206 394 + 1;
#X msg 185 102 arraytest 0 1 2 3 4 5;
#X obj 161 503 tabwrite;
#X obj 127 291 bng 15 250 50 0 empty empty empty 17 7 0 10 -262144
-1 -1;
#X obj 164 433 moses;
#X obj 219 267 list length, f 6;
#X obj 174 361 bng 15 250 50 0 empty empty empty 17 7 0 10 -262144
-1 -1;
#X obj 164 272 f;
#X obj 191 326 +;
#X obj 118 176 bng 15 250 50 0 empty empty empty 17 7 0 10 -262144
-1 -1;
#X obj 151 42 inlet;
#X connect 0 0 16 0;
#X connect 0 1 4 1;
#X connect 0 1 14 0;
#X connect 1 0 6 0;
#X connect 1 1 5 1;
#X connect 2 0 11 0;
#X connect 2 0 15 0;
#X connect 2 1 4 1;
#X connect 3 0 9 0;
#X connect 3 0 13 0;
#X connect 4 0 2 0;
#X connect 5 0 0 0;
#X connect 6 0 11 0;
#X connect 6 0 18 0;
#X connect 9 0 3 1;
#X connect 10 0 1 0;
#X connect 12 0 4 0;
#X connect 13 0 11 1;
#X connect 13 0 12 0;
#X connect 14 0 17 1;
#X connect 15 0 3 0;
#X connect 16 0 17 0;
#X connect 16 0 3 0;
#X connect 17 0 13 1;
#X connect 18 0 5 0;
#X connect 19 0 1 0;
