#N canvas 412 291 607 706 10;
#X obj 65 46 inlet;
#X obj 65 299 line~;
#X obj 64 382 outlet~;
#X obj 205 383 outlet~;
#X obj 205 300 line~;
#X obj 65 83 moses 0;
#X msg 65 185 1;
#X obj 65 156 bng 15 250 50 0 empty empty empty 17 7 0 10 -262144 -1
-1;
#X floatatom 133 218 5 0 0 0 - - -;
#X msg 205 185 1;
#X obj 205 160 bng 15 250 50 0 empty empty empty 17 7 0 10 -262144
-1 -1;
#X floatatom 271 218 5 0 0 0 - - -;
#X obj 65 275 pack f 50;
#X obj 205 276 pack f 50;
#X floatatom 152 331 5 0 0 0 - - -;
#X msg 152 292 \$1;
#X floatatom 287 332 5 0 0 0 - - -;
#X msg 287 293 \$1;
#X obj 101 127 abs;
#X obj 374 212 r tick_length;
#X floatatom 374 261 5 0 0 0 - - -;
#X obj 374 238 / 4;
#X msg 142 53 0;
#X obj 271 100 f;
#X obj 271 119 - 1;
#X obj 271 139 abs;
#X obj 101 150 f;
#X obj 101 169 - 1;
#X obj 101 188 abs;
#X connect 0 0 5 0;
#X connect 1 0 2 0;
#X connect 4 0 3 0;
#X connect 5 0 18 0;
#X connect 5 0 7 0;
#X connect 5 1 10 0;
#X connect 5 1 23 0;
#X connect 6 0 12 0;
#X connect 7 0 6 0;
#X connect 8 0 13 0;
#X connect 9 0 13 0;
#X connect 10 0 9 0;
#X connect 11 0 12 0;
#X connect 12 0 1 0;
#X connect 12 0 15 0;
#X connect 13 0 4 0;
#X connect 13 0 17 0;
#X connect 15 0 14 0;
#X connect 17 0 16 0;
#X connect 18 0 26 0;
#X connect 19 0 21 0;
#X connect 20 0 13 1;
#X connect 20 0 12 1;
#X connect 21 0 20 0;
#X connect 22 0 5 0;
#X connect 23 0 24 0;
#X connect 24 0 25 0;
#X connect 25 0 11 0;
#X connect 26 0 27 0;
#X connect 27 0 28 0;
#X connect 28 0 8 0;
