#N canvas 481 150 430 441 10;
#X obj 65 46 inlet;
#X obj 65 299 line~;
#X obj 64 382 outlet~;
#X obj 205 383 outlet~;
#X obj 205 300 line~;
#X obj 65 83 moses 0;
#X floatatom 65 137 5 0 0 0 - - -, f 5;
#X msg 65 185 1;
#X obj 133 171 1;
#X obj 133 151 bng 15 250 50 0 empty empty empty 17 7 0 10 -262144
-1 -1;
#X floatatom 133 218 5 0 0 0 - - -, f 5;
#X floatatom 205 137 5 0 0 0 - - -, f 5;
#X msg 205 185 1;
#X obj 273 171 1;
#X obj 273 151 bng 15 250 50 0 empty empty empty 17 7 0 10 -262144
-1 -1;
#X floatatom 273 218 5 0 0 0 - - -, f 5;
#X obj 273 192 -;
#X obj 65 275 pack f 50;
#X obj 205 276 pack f 50;
#X floatatom 152 331 5 0 0 0 - - -, f 5;
#X msg 152 292 \$1;
#X floatatom 287 332 5 0 0 0 - - -, f 5;
#X msg 287 293 \$1;
#X obj 65 110 abs;
#X obj 133 192 -;
#X connect 0 0 5 0;
#X connect 1 0 2 0;
#X connect 4 0 3 0;
#X connect 5 0 23 0;
#X connect 5 1 11 0;
#X connect 6 0 9 0;
#X connect 6 0 24 1;
#X connect 7 0 17 0;
#X connect 8 0 24 0;
#X connect 9 0 8 0;
#X connect 9 0 7 0;
#X connect 10 0 18 0;
#X connect 11 0 14 0;
#X connect 11 0 16 1;
#X connect 12 0 18 0;
#X connect 13 0 16 0;
#X connect 14 0 13 0;
#X connect 14 0 12 0;
#X connect 15 0 17 0;
#X connect 16 0 15 0;
#X connect 17 0 1 0;
#X connect 17 0 20 0;
#X connect 18 0 4 0;
#X connect 18 0 22 0;
#X connect 20 0 19 0;
#X connect 22 0 21 0;
#X connect 23 0 6 0;
#X connect 24 0 10 0;
