#N canvas 0 71 1280 953 10;
#X obj 287 854 outlet;
#X floatatom 568 550 8 0 0 0 - - -, f 8;
#X obj 568 518 / 44.1;
#X obj 550 684 int;
#X obj 287 763 pack f f f, f 41;
#X obj 550 736 f;
#X text 512 738 time;
#X obj 287 740 bng 15 250 50 0 empty empty empty 17 7 0 10 -262144
-1 -1;
#X obj 287 817 route 0;
#X obj 550 709 +;
#X obj 614 713 bng 15 250 50 0 empty empty empty 17 7 0 10 -262144
-1 -1;
#X obj 426 181 int;
#X obj 408 421 -;
#X obj 522 198 / 100;
#X floatatom 522 220 5 0 0 0 - - -, f 5;
#X obj 504 271 *;
#X floatatom 721 271 5 0 0 0 - - -, f 5;
#X floatatom 787 709 5 0 0 0 - - -, f 5;
#X obj 604 619 / 10;
#X obj 681 656 bng 15 250 50 0 empty empty empty 17 7 0 10 -262144
-1 -1;
#X floatatom 802 641 5 0 0 0 - - -, f 5;
#X obj 604 642 *;
#X obj 550 659 +;
#X floatatom 434 705 8 0 0 0 - - -, f 8;
#X obj 550 619 f;
#X obj 604 578 f;
#X obj 604 667 bng 15 250 50 0 empty empty empty 17 7 0 10 -262144
-1 -1;
#X obj 396 288 f;
#X floatatom 583 752 8 0 0 0 - - -, f 8;
#X obj 408 447 abs;
#X floatatom 725 397 5 0 0 0 - - -, f 5;
#X floatatom 535 462 8 0 0 0 - - -, f 8;
#X obj 535 435 f;
#X obj 535 397 *;
#X obj 453 476 -;
#X obj 453 501 abs;
#X obj 591 254 r track_\$1_note_length;
#X obj 593 380 r track_\$1_note_begin;
#X obj 681 624 r track_\$1_note_pitch;
#X obj 614 692 r track_\$1_note_tone;
#X obj 111 723 r play_note_\$1;
#X obj 196 164 sample_to_table \$1;
#X connect 1 0 24 1;
#X connect 1 0 25 1;
#X connect 2 0 1 0;
#X connect 3 0 9 0;
#X connect 4 0 8 0;
#X connect 5 0 4 2;
#X connect 5 0 28 0;
#X connect 7 0 4 0;
#X connect 8 0 0 0;
#X connect 9 0 5 0;
#X connect 10 0 3 0;
#X connect 11 0 13 0;
#X connect 11 0 12 1;
#X connect 12 0 29 0;
#X connect 13 0 14 0;
#X connect 14 0 15 1;
#X connect 14 0 33 1;
#X connect 15 0 27 0;
#X connect 18 0 21 0;
#X connect 19 0 25 0;
#X connect 21 0 22 1;
#X connect 21 0 26 0;
#X connect 22 0 3 0;
#X connect 22 0 23 0;
#X connect 24 0 22 0;
#X connect 25 0 18 0;
#X connect 26 0 24 0;
#X connect 27 0 12 0;
#X connect 29 0 4 1;
#X connect 29 0 34 1;
#X connect 31 0 0 0;
#X connect 31 0 34 0;
#X connect 32 0 31 0;
#X connect 33 0 32 0;
#X connect 34 0 35 0;
#X connect 35 0 2 0;
#X connect 36 0 16 0;
#X connect 36 0 15 0;
#X connect 37 0 30 0;
#X connect 37 0 33 0;
#X connect 38 0 20 0;
#X connect 38 0 21 1;
#X connect 38 0 19 0;
#X connect 39 0 9 1;
#X connect 39 0 10 0;
#X connect 39 0 17 0;
#X connect 40 0 7 0;
#X connect 41 0 11 0;
