#N canvas 223 73 905 939 10;
#X obj 266 826 outlet;
#X floatatom 195 254 5 0 0 0 - - -, f 5;
#X obj 195 276 bng 15 250 50 0 empty empty empty 17 7 0 10 -262144
-1 -1;
#X floatatom 568 503 8 0 0 0 - - -, f 8;
#X obj 568 477 / 44.1;
#X obj 550 656 int;
#X obj 266 735 pack f f f, f 41;
#X obj 550 708 f;
#X text 512 710 time;
#X text 356 271 end, f 7;
#X obj 195 223 soundfiler;
#X obj 195 168 pack s s;
#X msg 195 197 read -resize \$1 \$2;
#X obj 266 712 bng 15 250 50 0 empty empty empty 17 7 0 10 -262144
-1 -1;
#X obj 301 128 \$1;
#X msg 195 338 \; \$1 normalize \;;
#X obj 195 295 \$1;
#X obj 301 106 loadbang;
#X obj 297 33 table mysample_\$1;
#X obj 195 318 makefilename mysample_%d;
#X obj 301 151 makefilename mysample_%d;
#X obj 121 33 receive track_\$1_sample;
#X obj 266 789 route 0;
#X obj 181 789 0;
#X obj 550 681 +;
#X obj 614 685 bng 15 250 50 0 empty empty empty 17 7 0 10 -262144
-1 -1;
#X obj 426 268 int;
#X obj 534 362 bng 15 250 50 0 empty empty empty 17 7 0 10 -262144
-1 -1;
#X floatatom 408 434 8 0 0 0 - - -, f 8;
#X obj 408 403 -;
#X obj 43 772 r begin_note_\$1;
#X floatatom 43 800 5 0 0 0 - - -, f 5;
#X obj 408 460 -;
#X obj 484 285 / 100;
#X floatatom 484 307 5 0 0 0 - - -, f 5;
#X obj 466 358 *;
#X floatatom 466 389 8 0 0 0 - - -, f 8;
#X obj 121 105 select toto;
#X obj 121 74 symbol;
#X obj 215 105 symbol;
#X floatatom 664 358 5 0 0 0 - - -, f 5;
#X obj 466 417 bng 15 250 50 0 empty empty empty 17 7 0 10 -262144
-1 -1;
#X obj 530 403 route 0;
#X floatatom 576 424 5 0 0 0 - - -, f 5;
#X obj 614 664 r tone_note_\$1;
#X floatatom 787 681 5 0 0 0 - - -, f 5;
#X obj 604 591 / 10;
#X obj 681 629 bng 15 250 50 0 empty empty empty 17 7 0 10 -262144
-1 -1;
#X floatatom 802 614 5 0 0 0 - - -, f 5;
#X obj 604 614 *;
#X obj 550 631 +;
#X obj 681 597 r pitch_note_\$1;
#X floatatom 434 677 8 0 0 0 - - -, f 8;
#X obj 534 341 r length_note_\$1;
#X obj 550 591 f;
#X obj 604 550 f;
#X obj 604 639 bng 15 250 50 0 empty empty empty 17 7 0 10 -262144
-1 -1;
#X obj 266 653 receive play_note_\$1;
#X obj 408 354 f;
#X obj 466 329 f;
#X floatatom 583 724 8 0 0 0 - - -, f 8;
#X connect 1 0 2 0;
#X connect 1 0 26 0;
#X connect 2 0 16 0;
#X connect 3 0 54 1;
#X connect 3 0 55 1;
#X connect 4 0 3 0;
#X connect 5 0 24 0;
#X connect 6 0 22 0;
#X connect 7 0 6 2;
#X connect 7 0 60 0;
#X connect 10 0 1 0;
#X connect 11 0 12 0;
#X connect 12 0 10 0;
#X connect 13 0 6 0;
#X connect 14 0 20 0;
#X connect 16 0 19 0;
#X connect 17 0 14 0;
#X connect 19 0 15 0;
#X connect 20 0 11 1;
#X connect 21 0 38 0;
#X connect 22 0 0 0;
#X connect 23 0 0 0;
#X connect 24 0 7 0;
#X connect 25 0 5 0;
#X connect 26 0 33 0;
#X connect 26 0 58 1;
#X connect 27 0 59 0;
#X connect 28 0 32 0;
#X connect 29 0 28 0;
#X connect 30 0 31 0;
#X connect 30 0 23 0;
#X connect 31 0 32 1;
#X connect 32 0 4 0;
#X connect 32 0 6 1;
#X connect 33 0 34 0;
#X connect 34 0 59 1;
#X connect 35 0 36 0;
#X connect 36 0 29 1;
#X connect 36 0 41 0;
#X connect 36 0 42 0;
#X connect 37 1 39 0;
#X connect 37 1 11 0;
#X connect 38 0 37 0;
#X connect 39 0 37 1;
#X connect 41 0 58 0;
#X connect 42 1 43 0;
#X connect 44 0 24 1;
#X connect 44 0 25 0;
#X connect 44 0 45 0;
#X connect 46 0 49 0;
#X connect 47 0 55 0;
#X connect 49 0 50 1;
#X connect 49 0 56 0;
#X connect 50 0 5 0;
#X connect 50 0 52 0;
#X connect 51 0 48 0;
#X connect 51 0 49 1;
#X connect 51 0 47 0;
#X connect 53 0 27 0;
#X connect 53 0 35 1;
#X connect 53 0 40 0;
#X connect 54 0 50 0;
#X connect 55 0 46 0;
#X connect 56 0 54 0;
#X connect 57 0 13 0;
#X connect 58 0 29 0;
#X connect 59 0 35 0;
