#N canvas 342 114 1141 660 10;
#X obj 252 421 outlet;
#X floatatom 83 203 5 0 0 0 - - -, f 5;
#X obj 83 225 bng 15 250 50 0 empty empty empty 17 7 0 10 -262144 -1
-1;
#X floatatom 536 229 5 0 0 0 - - -, f 5;
#X obj 536 203 / 44.1;
#X obj 536 251 int;
#X obj 252 330 pack f f f, f 41;
#X obj 536 303 f;
#X text 565 304 time;
#X text 226 220 end, f 7;
#X obj 156 186 soundfiler;
#X obj 156 131 pack s s;
#X msg 156 160 read -resize \$1 \$2;
#X obj 252 300 bng 15 250 50 0 empty empty empty 17 7 0 10 -262144
-1 -1;
#X obj 262 91 \$1;
#X msg 83 287 \; \$1 normalize \;;
#X obj 83 244 \$1;
#X obj 262 69 loadbang;
#X obj 335 43 table mysample_\$1;
#X obj 335 69 table note;
#X obj 83 267 makefilename mysample_%d;
#X obj 262 114 makefilename mysample_%d;
#X obj 156 43 receive track_\$1_sample;
#X obj 657 290 r play_note_\$1;
#X obj 252 384 route 0;
#X obj 167 388 0;
#X obj 536 276 +;
#X obj 600 259 r speed_note_\$1;
#X obj 600 280 bng 15 250 50 0 empty empty empty 17 7 0 10 -262144
-1 -1;
#X obj 296 217 int;
#X obj 393 219 bng 15 250 50 0 empty empty empty 17 7 0 10 -262144
-1 -1;
#X obj 393 198 r end_note_\$1;
#X floatatom 296 265 5 0 0 0 - - -, f 5;
#X obj 296 242 -;
#X obj 29 371 r begin_note_\$1;
#X floatatom 29 399 5 0 0 0 - - -, f 5;
#X obj 356 279 -;
#X obj 657 313 delay 25;
#X obj 336 168 / 100;
#X floatatom 336 190 5 0 0 0 - - -, f 5;
#X obj 336 215 *;
#X floatatom 336 243 5 0 0 0 - - -, f 5;
#X connect 1 0 2 0;
#X connect 1 0 29 0;
#X connect 2 0 16 0;
#X connect 3 0 5 0;
#X connect 4 0 3 0;
#X connect 5 0 26 0;
#X connect 6 0 24 0;
#X connect 7 0 6 2;
#X connect 10 0 1 0;
#X connect 11 0 12 0;
#X connect 12 0 10 0;
#X connect 13 0 6 0;
#X connect 14 0 21 0;
#X connect 16 0 20 0;
#X connect 17 0 14 0;
#X connect 20 0 15 0;
#X connect 21 0 11 1;
#X connect 22 0 11 0;
#X connect 23 0 37 0;
#X connect 24 0 0 0;
#X connect 25 0 0 0;
#X connect 26 0 7 0;
#X connect 27 0 26 1;
#X connect 27 0 28 0;
#X connect 28 0 5 0;
#X connect 29 0 33 0;
#X connect 29 0 38 0;
#X connect 31 0 30 0;
#X connect 31 0 40 1;
#X connect 32 0 36 0;
#X connect 33 0 32 0;
#X connect 34 0 35 0;
#X connect 34 0 25 0;
#X connect 35 0 36 1;
#X connect 36 0 4 0;
#X connect 36 0 6 1;
#X connect 37 0 6 0;
#X connect 38 0 39 0;
#X connect 39 0 40 0;
#X connect 40 0 41 0;
