#N canvas 229 53 905 660 10;
#X obj 287 854 outlet;
#X floatatom 195 254 15 0 0 0 - - -, f 15;
#X obj 195 276 bng 15 250 50 0 empty empty empty 17 7 0 10 -262144
-1 -1;
#X floatatom 568 550 8 0 0 0 - - -, f 8;
#X obj 568 518 / 44.1;
#X obj 550 684 int;
#X obj 287 763 pack f f f, f 41;
#X obj 550 736 f;
#X text 512 738 time;
#X text 356 271 end, f 7;
#X obj 195 223 soundfiler;
#X obj 195 168 pack s s;
#X msg 195 197 read -resize \$1 \$2;
#X obj 287 740 bng 15 250 50 0 empty empty empty 17 7 0 10 -262144
-1 -1;
#X obj 301 128 \$1;
#X msg 195 338 \; \$1 normalize \;;
#X obj 195 295 \$1;
#X obj 301 106 loadbang;
#X obj 297 33 table mysample_\$1;
#X obj 195 318 makefilename mysample_%d;
#X obj 301 151 makefilename mysample_%d;
#X obj 121 33 receive track_\$1_sample;
#X obj 287 817 route 0;
#X obj 550 709 +;
#X obj 614 713 bng 15 250 50 0 empty empty empty 17 7 0 10 -262144
-1 -1;
#X obj 426 268 int;
#X obj 408 421 -;
#X obj 522 285 / 100;
#X floatatom 522 307 5 0 0 0 - - -, f 5;
#X obj 504 358 *;
#X obj 121 105 select toto;
#X obj 121 74 symbol;
#X obj 215 105 symbol;
#X floatatom 721 358 5 0 0 0 - - -, f 5;
#X floatatom 787 709 5 0 0 0 - - -, f 5;
#X obj 604 619 / 10;
#X obj 681 656 bng 15 250 50 0 empty empty empty 17 7 0 10 -262144
-1 -1;
#X floatatom 802 641 5 0 0 0 - - -, f 5;
#X obj 604 642 *;
#X obj 550 659 +;
#X floatatom 434 705 8 0 0 0 - - -, f 8;
#X obj 550 619 f;
#X obj 604 578 f;
#X obj 604 667 bng 15 250 50 0 empty empty empty 17 7 0 10 -262144
-1 -1;
#X obj 396 375 f;
#X floatatom 583 752 8 0 0 0 - - -, f 8;
#X msg 62 363 \; pd dsp \$1 \;;
#X msg 62 214 0;
#X msg 115 291 1;
#X obj 122 231 bng 15 250 50 0 empty empty empty 17 7 0 10 -262144
-1 -1;
#X obj 62 410 print;
#X text 54 443 securité a mettre en place : couper l'audio lors du
chargement d'un son trop long : utiliser le flag max_size de soundfiler
, f 14;
#X obj 62 327 f;
#X obj 408 447 abs;
#X floatatom 725 397 5 0 0 0 - - -, f 5;
#X floatatom 535 462 8 0 0 0 - - -, f 8;
#X obj 535 435 f;
#X obj 535 397 *;
#X obj 453 476 -;
#X obj 453 501 abs;
#X obj 591 341 r track_\$1_note_length;
#X obj 593 380 r track_\$1_note_begin;
#X obj 681 624 r track_\$1_note_pitch;
#X obj 614 692 r track_\$1_note_tone;
#X obj 111 723 r play_note_\$1;
#X connect 1 0 2 0;
#X connect 1 0 25 0;
#X connect 2 0 16 0;
#X connect 2 0 48 0;
#X connect 3 0 41 1;
#X connect 3 0 42 1;
#X connect 4 0 3 0;
#X connect 5 0 23 0;
#X connect 6 0 22 0;
#X connect 7 0 6 2;
#X connect 7 0 45 0;
#X connect 10 0 1 0;
#X connect 11 0 12 0;
#X connect 12 0 10 0;
#X connect 12 0 47 0;
#X connect 13 0 6 0;
#X connect 14 0 20 0;
#X connect 16 0 19 0;
#X connect 17 0 14 0;
#X connect 19 0 15 0;
#X connect 20 0 11 1;
#X connect 21 0 31 0;
#X connect 22 0 0 0;
#X connect 23 0 7 0;
#X connect 24 0 5 0;
#X connect 25 0 27 0;
#X connect 25 0 26 1;
#X connect 26 0 53 0;
#X connect 27 0 28 0;
#X connect 28 0 29 1;
#X connect 28 0 57 1;
#X connect 29 0 44 0;
#X connect 30 1 32 0;
#X connect 30 1 11 0;
#X connect 31 0 30 0;
#X connect 32 0 30 1;
#X connect 35 0 38 0;
#X connect 36 0 42 0;
#X connect 38 0 39 1;
#X connect 38 0 43 0;
#X connect 39 0 5 0;
#X connect 39 0 40 0;
#X connect 41 0 39 0;
#X connect 42 0 35 0;
#X connect 43 0 41 0;
#X connect 44 0 26 0;
#X connect 46 0 50 0;
#X connect 47 0 49 0;
#X connect 47 0 52 0;
#X connect 48 0 52 0;
#X connect 53 0 6 1;
#X connect 53 0 58 1;
#X connect 55 0 0 0;
#X connect 55 0 58 0;
#X connect 56 0 55 0;
#X connect 57 0 56 0;
#X connect 58 0 59 0;
#X connect 59 0 4 0;
#X connect 60 0 33 0;
#X connect 60 0 29 0;
#X connect 61 0 54 0;
#X connect 61 0 57 0;
#X connect 62 0 37 0;
#X connect 62 0 38 1;
#X connect 62 0 36 0;
#X connect 63 0 23 1;
#X connect 63 0 24 0;
#X connect 63 0 34 0;
#X connect 64 0 13 0;
