#N canvas 93 120 905 877 10;
#X obj 266 766 outlet;
#X floatatom 195 254 5 0 0 0 - - -, f 5;
#X obj 195 276 bng 15 250 50 0 empty empty empty 17 7 0 10 -262144
-1 -1;
#X floatatom 550 503 15 0 0 0 - - -, f 15;
#X obj 550 477 / 44.1;
#X obj 550 596 int;
#X obj 266 675 pack f f f, f 41;
#X obj 550 648 f;
#X text 579 649 time;
#X text 338 271 end, f 7;
#X obj 195 223 soundfiler;
#X obj 195 168 pack s s;
#X msg 195 197 read -resize \$1 \$2;
#X obj 266 645 bng 15 250 50 0 empty empty empty 17 7 0 10 -262144
-1 -1;
#X obj 301 128 \$1;
#X msg 195 338 \; \$1 normalize \;;
#X obj 195 295 \$1;
#X obj 301 106 loadbang;
#X obj 297 33 table mysample_\$1;
#X obj 195 318 makefilename mysample_%d;
#X obj 301 151 makefilename mysample_%d;
#X obj 121 33 receive track_\$1_sample;
#X obj 671 635 r play_note_\$1;
#X obj 266 729 route 0;
#X obj 181 729 0;
#X obj 550 621 +;
#X obj 614 625 bng 15 250 50 0 empty empty empty 17 7 0 10 -262144
-1 -1;
#X obj 408 268 int;
#X obj 516 336 bng 15 250 50 0 empty empty empty 17 7 0 10 -262144
-1 -1;
#X floatatom 408 434 5 0 0 0 - - -, f 5;
#X obj 408 403 -;
#X obj 43 712 r begin_note_\$1;
#X floatatom 43 740 5 0 0 0 - - -, f 5;
#X obj 408 460 -;
#X obj 671 658 delay 25;
#X obj 448 285 / 100;
#X floatatom 448 307 5 0 0 0 - - -, f 5;
#X obj 448 332 *;
#X floatatom 448 360 5 0 0 0 - - -, f 5;
#X obj 121 105 select toto;
#X obj 121 74 symbol;
#X obj 215 105 symbol;
#X floatatom 646 332 5 0 0 0 - - -, f 5;
#X obj 448 388 bng 15 250 50 0 empty empty empty 17 7 0 10 -262144
-1 -1;
#X obj 512 381 route 0;
#X floatatom 562 402 5 0 0 0 - - -, f 5;
#X obj 614 604 r tone_note_\$1;
#X floatatom 787 621 5 0 0 0 - - -, f 5;
#X obj 586 531 / 10;
#X obj 663 558 bng 15 250 50 0 empty empty empty 17 7 0 10 -262144
-1 -1;
#X floatatom 836 554 5 0 0 0 - - -, f 5;
#X obj 586 554 *;
#X obj 550 571 +;
#X obj 663 537 r pitch_note_\$1;
#X floatatom 434 617 15 0 0 0 - - -, f 15;
#X obj 516 315 r length_note_\$1;
#X connect 1 0 2 0;
#X connect 1 0 27 0;
#X connect 2 0 16 0;
#X connect 3 0 48 0;
#X connect 3 0 52 0;
#X connect 4 0 3 0;
#X connect 5 0 25 0;
#X connect 6 0 23 0;
#X connect 7 0 6 2;
#X connect 10 0 1 0;
#X connect 11 0 12 0;
#X connect 12 0 10 0;
#X connect 13 0 6 0;
#X connect 14 0 20 0;
#X connect 16 0 19 0;
#X connect 17 0 14 0;
#X connect 19 0 15 0;
#X connect 20 0 11 1;
#X connect 21 0 40 0;
#X connect 22 0 34 0;
#X connect 23 0 0 0;
#X connect 24 0 0 0;
#X connect 25 0 7 0;
#X connect 26 0 5 0;
#X connect 27 0 35 0;
#X connect 27 0 30 0;
#X connect 28 0 37 0;
#X connect 29 0 33 0;
#X connect 30 0 29 0;
#X connect 31 0 32 0;
#X connect 31 0 24 0;
#X connect 32 0 33 1;
#X connect 33 0 4 0;
#X connect 33 0 6 1;
#X connect 34 0 6 0;
#X connect 35 0 36 0;
#X connect 36 0 37 0;
#X connect 37 0 38 0;
#X connect 38 0 30 1;
#X connect 38 0 43 0;
#X connect 38 0 44 0;
#X connect 39 1 41 0;
#X connect 39 1 11 0;
#X connect 40 0 39 0;
#X connect 41 0 39 1;
#X connect 43 0 30 0;
#X connect 44 1 45 0;
#X connect 46 0 25 1;
#X connect 46 0 26 0;
#X connect 46 0 47 0;
#X connect 48 0 51 0;
#X connect 49 0 3 0;
#X connect 51 0 52 1;
#X connect 52 0 5 0;
#X connect 52 0 54 0;
#X connect 53 0 49 0;
#X connect 53 0 50 0;
#X connect 53 0 51 1;
#X connect 55 0 28 0;
#X connect 55 0 37 1;
#X connect 55 0 42 0;
