#N canvas 577 242 497 627 10;
#X obj 54 108 line~;
#X obj 54 261 *~;
#X obj 54 136 tabread4~ mysample_\$1;
#X obj 56 529 outlet~;
#X obj 132 261 *~;
#X obj 134 529 outlet~;
#X obj 190 245 line~;
#X obj 190 221 pack f 50;
#X obj 190 194 r vol_note_\$1;
#X obj 310 139 r pan_note_\$1;
#X obj 54 178 *~;
#X obj 132 178 *~;
#X obj 190 354 line~;
#X obj 190 330 pack f 50;
#X obj 55 286 *~;
#X obj 133 286 *~;
#X obj 190 303 r track_\$1_vol;
#X obj 133 370 *~;
#X obj 55 370 *~;
#X obj 312 246 r track_\$1_pan;
#X obj 314 304 r track_\$1_mute;
#X obj 314 328 select 0;
#X msg 314 351 1;
#X msg 367 351 0;
#X obj 314 404 line~;
#X obj 314 380 pack f 50;
#X obj 133 420 *~;
#X obj 55 420 *~;
#X obj 310 162 pan_box;
#X obj 191 456 solo_box \$1;
#X obj 133 472 *~;
#X obj 55 472 *~;
#X obj 54 57 inlet;
#X obj 312 269 pan_box;
#X obj 250 35 r tick_length;
#X floatatom 250 84 5 0 0 0 - - -, f 5;
#X obj 250 61 / 4;
#X connect 0 0 2 0;
#X connect 1 0 14 0;
#X connect 2 0 10 0;
#X connect 2 0 11 0;
#X connect 4 0 15 0;
#X connect 6 0 1 1;
#X connect 6 0 4 1;
#X connect 7 0 6 0;
#X connect 8 0 7 0;
#X connect 9 0 28 0;
#X connect 10 0 1 0;
#X connect 11 0 4 0;
#X connect 12 0 17 1;
#X connect 12 0 18 1;
#X connect 13 0 12 0;
#X connect 14 0 18 0;
#X connect 15 0 17 0;
#X connect 16 0 13 0;
#X connect 17 0 26 0;
#X connect 18 0 27 0;
#X connect 19 0 33 0;
#X connect 20 0 21 0;
#X connect 21 0 22 0;
#X connect 21 1 23 0;
#X connect 22 0 25 0;
#X connect 23 0 25 0;
#X connect 24 0 26 1;
#X connect 24 0 27 1;
#X connect 25 0 24 0;
#X connect 26 0 30 0;
#X connect 27 0 31 0;
#X connect 28 0 10 1;
#X connect 28 1 11 1;
#X connect 29 0 31 1;
#X connect 29 0 30 1;
#X connect 30 0 5 0;
#X connect 31 0 3 0;
#X connect 32 0 0 0;
#X connect 33 0 14 1;
#X connect 33 1 15 1;
#X connect 34 0 36 0;
#X connect 35 0 7 1;
#X connect 35 0 25 1;
#X connect 35 0 13 1;
#X connect 36 0 35 0;
