#N canvas 234 139 391 426 10;
#X obj 58 86 line~;
#X obj 58 114 tabread4~ mysample_\$1;
#X obj 58 335 outlet~;
#X obj 136 335 outlet~;
#X obj 193 262 solo_box \$1;
#X obj 135 278 *~;
#X obj 57 278 *~;
#X obj 58 35 inlet;
#X obj 91 61 print player_\$1;
#X obj 58 156 track_volume \$1;
#X obj 57 196 track_paning \$1;
#X obj 58 232 track_mute \$1;
#X connect 0 0 1 0;
#X connect 1 0 9 0;
#X connect 4 0 6 1;
#X connect 4 0 5 1;
#X connect 5 0 3 0;
#X connect 6 0 2 0;
#X connect 7 0 0 0;
#X connect 7 0 8 0;
#X connect 9 0 10 0;
#X connect 10 0 11 0;
#X connect 10 1 11 1;
#X connect 11 0 6 0;
#X connect 11 1 5 0;
