#N canvas 288 226 586 716 10;
#X floatatom 38 283 5 0 0 0 - - -, f 5;
#X obj 38 305 bng 15 250 50 0 empty empty empty 17 7 0 10 -262144 -1
-1;
#X obj 122 506 line~;
#X floatatom 274 332 5 0 0 0 - - -, f 5;
#X obj 274 283 / 44.1;
#X obj 274 354 int;
#X obj 122 427 bng 15 250 50 0 empty empty empty 17 7 0 10 -262144
-1 -1;
#X obj 207 410 pack f f f;
#X obj 122 554 *~ 0.3;
#X obj 240 297 f;
#X obj 274 383 f;
#X obj 122 454 0;
#X text 303 384 time;
#X text 181 300 end, f 7;
#X text 75 455 begin;
#X obj 123 592 *~;
#X obj 331 575 line;
#X msg 331 516 1 100;
#X obj 111 266 soundfiler;
#X obj 111 186 pack s s;
#X msg 111 215 read -resize \$1 \$2;
#X obj 380 393 receive play_\$1;
#X obj 207 380 bng 15 250 50 0 empty empty empty 17 7 0 10 -262144
-1 -1;
#X obj 111 52 table mysample\$1;
#X obj 122 531 tabread4~ mysample\$1;
#X obj 217 146 \$1;
#X obj 217 169 makefilename mysample%d;
#X msg 38 367 \; \$1 normalize \;;
#X obj 38 324 \$1;
#X obj 38 347 makefilename mysample%d;
#X obj 380 425 print play\$1;
#X obj 207 467 route 1;
#X obj 124 648 send~ left;
#X obj 111 102 receive sample_\$1;
#X obj 217 124 loadbang;
#X connect 0 0 1 0;
#X connect 0 0 9 0;
#X connect 1 0 28 0;
#X connect 2 0 24 0;
#X connect 3 0 5 0;
#X connect 4 0 3 0;
#X connect 5 0 10 0;
#X connect 6 0 11 0;
#X connect 7 0 6 0;
#X connect 7 0 31 0;
#X connect 8 0 15 0;
#X connect 9 0 7 1;
#X connect 10 0 7 2;
#X connect 11 0 2 0;
#X connect 15 0 32 0;
#X connect 16 0 15 1;
#X connect 17 0 16 0;
#X connect 18 0 0 0;
#X connect 18 0 4 0;
#X connect 19 0 20 0;
#X connect 20 0 18 0;
#X connect 21 0 7 0;
#X connect 21 0 30 0;
#X connect 22 0 7 0;
#X connect 24 0 8 0;
#X connect 25 0 26 0;
#X connect 26 0 19 1;
#X connect 28 0 29 0;
#X connect 29 0 27 0;
#X connect 31 0 2 0;
#X connect 31 0 17 0;
#X connect 33 0 19 0;
#X connect 34 0 25 0;
