#N canvas 521 110 497 627 10;
#X obj 54 108 line~;
#X obj 54 261 *~;
#X obj 54 136 tabread4~ mysample_\$1;
#X obj 56 529 outlet~;
#X obj 132 261 *~;
#X obj 134 529 outlet~;
#X obj 190 245 line~;
#X obj 190 221 pack f 50;
#X obj 54 178 *~;
#X obj 132 178 *~;
#X obj 190 354 line~;
#X obj 190 330 pack f 50;
#X obj 55 286 *~;
#X obj 133 286 *~;
#X obj 190 303 r track_\$1_vol;
#X obj 133 370 *~;
#X obj 55 370 *~;
#X obj 312 246 r track_\$1_pan;
#X obj 314 367 r track_\$1_mute;
#X obj 133 419 *~;
#X obj 55 419 *~;
#X obj 310 162 pan_box;
#X obj 191 456 solo_box \$1;
#X obj 133 472 *~;
#X obj 55 472 *~;
#X obj 54 57 inlet;
#X obj 250 35 r tick_length;
#X floatatom 250 84 5 0 0 0 - - -, f 5;
#X obj 250 61 / 4;
#X obj 312 269 pan_box;
#X obj 87 83 print player_\$1;
#X obj 314 403 mute_box;
#X obj 310 139 r track_\$1_note_pan;
#X obj 190 194 r track_\$1_note_vol;
#X connect 0 0 2 0;
#X connect 1 0 12 0;
#X connect 2 0 8 0;
#X connect 2 0 9 0;
#X connect 4 0 13 0;
#X connect 6 0 1 1;
#X connect 6 0 4 1;
#X connect 7 0 6 0;
#X connect 8 0 1 0;
#X connect 9 0 4 0;
#X connect 10 0 15 1;
#X connect 10 0 16 1;
#X connect 11 0 10 0;
#X connect 12 0 16 0;
#X connect 13 0 15 0;
#X connect 14 0 11 0;
#X connect 15 0 19 0;
#X connect 16 0 20 0;
#X connect 17 0 29 0;
#X connect 18 0 31 0;
#X connect 19 0 23 0;
#X connect 20 0 24 0;
#X connect 21 0 8 1;
#X connect 21 1 9 1;
#X connect 22 0 24 1;
#X connect 22 0 23 1;
#X connect 23 0 5 0;
#X connect 24 0 3 0;
#X connect 25 0 0 0;
#X connect 25 0 30 0;
#X connect 26 0 28 0;
#X connect 27 0 7 1;
#X connect 27 0 11 1;
#X connect 28 0 27 0;
#X connect 29 0 12 1;
#X connect 29 1 13 1;
#X connect 31 0 19 1;
#X connect 31 0 20 1;
#X connect 32 0 21 0;
#X connect 33 0 7 0;
