#N canvas 429 187 699 468 10;
#X msg 76 247 start;
#X obj 376 351 writesf~ 2;
#X obj 97 208 bng 15 250 50 0 empty empty empty 17 7 0 10 -262144 -1
-1;
#X msg 283 231 stop;
#X obj 377 292 inlet~;
#X obj 467 334 inlet~;
#X msg 146 167 open /home/pi/audiosamples/Records/default.wav;
#X msg 146 103 set open \$1;
#X msg 146 43 symbol /home/pi/audiosamples/Records/test2.wav;
#X obj 189 145 bng 15 250 50 0 empty empty empty 17 7 0 10 -262144
-1 -1;
#X obj 411 68 r record;
#X obj 388 101 route 1;
#X connect 0 0 1 0;
#X connect 2 0 0 0;
#X connect 3 0 1 0;
#X connect 4 0 1 0;
#X connect 5 0 1 1;
#X connect 6 0 1 0;
#X connect 6 0 2 0;
#X connect 7 0 6 0;
#X connect 7 0 9 0;
#X connect 8 0 7 0;
#X connect 9 0 6 0;
#X connect 10 0 11 0;
#X connect 11 0 7 0;
#X connect 11 1 3 0;
