#N canvas 601 148 592 691 10;
#X floatatom 190 253 15 0 0 0 - - -;
#X obj 190 275 bng 15 250 50 0 empty empty empty 17 7 0 10 -262144
-1 -1;
#X text 351 270 end, f 7;
#X obj 190 222 soundfiler;
#X obj 190 167 pack s s;
#X msg 190 196 read -resize \$1 \$2;
#X obj 301 128 \$1;
#X msg 190 337 \; \$1 normalize \;;
#X obj 190 294 \$1;
#X obj 301 106 loadbang;
#X obj 190 317 makefilename mysample_%d;
#X obj 301 151 makefilename mysample_%d;
#X obj 121 33 receive track_\$1_sample;
#X obj 121 74 symbol;
#X obj 215 105 symbol;
#X msg 57 362 \; pd dsp \$1 \;;
#X msg 57 213 0;
#X msg 110 290 1;
#X obj 117 230 bng 15 250 50 0 empty empty empty 17 7 0 10 -262144
-1 -1;
#X obj 62 410 print;
#X text 54 443 securité a mettre en place : couper l'audio lors du
chargement d'un son trop long : utiliser le flag max_size de soundfiler
, f 14;
#X obj 57 326 f;
#X obj 473 267 outlet;
#X obj 121 105 select empty;
#X msg 24 172 \; mysample_\$1 resize 0;
#X obj 24 121 \$1;
#X connect 0 0 1 0;
#X connect 0 0 22 0;
#X connect 1 0 8 0;
#X connect 1 0 17 0;
#X connect 3 0 0 0;
#X connect 4 0 5 0;
#X connect 5 0 3 0;
#X connect 5 0 16 0;
#X connect 6 0 11 0;
#X connect 8 0 10 0;
#X connect 9 0 6 0;
#X connect 10 0 7 0;
#X connect 11 0 4 1;
#X connect 12 0 13 0;
#X connect 13 0 23 0;
#X connect 14 0 23 1;
#X connect 15 0 19 0;
#X connect 16 0 18 0;
#X connect 16 0 21 0;
#X connect 17 0 21 0;
#X connect 23 0 25 0;
#X connect 23 1 14 0;
#X connect 23 1 4 0;
#X connect 25 0 24 0;
