#N canvas 0 96 1280 928 10;
#X obj 769 673 pack f f f, f 41;
#X text 1027 645 time;
#X obj 769 634 bng 15 250 50 0 empty empty empty 17 7 0 10 -262144
-1 -1;
#X obj 769 698 route 0;
#X obj 890 525 sample_to_table \$1;
#X obj 1012 618 track_pitch_tone \$1;
#X obj 769 733 line~;
#X obj 769 761 tabread4~ mysample_\$1;
#X obj 768 786 outlet~;
#X obj 890 561 track_s_begin_end \$1;
#X floatatom 858 131 5 0 0 0 - - -;
#X obj 826 165 tabread notes_\$1_vol;
#X obj 826 207 route 0;
#X obj 843 354 s pas_\$1;
#X obj 843 326 f;
#X obj 865 238 bng 15 250 50 0 empty empty empty 17 7 0 10 -262144
-1 -1;
#X obj 1039 242 r tick_length;
#X obj 865 290 delay;
#X obj 896 251 s track_\$1_clean_vol;
#X obj 1039 274 / 16;
#X floatatom 51 207 5 0 0 0 - - -;
#X obj 51 155 *;
#X floatatom 91 127 5 0 0 0 - - -;
#X floatatom 51 114 5 0 0 0 - - -;
#X obj 91 169 *;
#X obj 51 61 r track_\$1_mesure;
#X obj 51 233 s track_\$1_length;
#X obj 175 567 + 1;
#X floatatom 175 522 5 0 0 0 - - -;
#X obj 175 499 0;
#X obj 175 545 moses, f 7;
#X obj 175 436 spigot;
#X obj 214 498 f;
#X obj 214 591 f;
#X obj 175 389 r master_metro;
#X obj 458 427 spigot;
#X obj 458 377 r master_metro;
#X obj 458 504 moses;
#X obj 458 454 0;
#X floatatom 458 480 5 0 0 0 - - -;
#X msg 571 520 0;
#X obj 458 588 ==;
#X obj 527 587 !=;
#X obj 419 689 f;
#X floatatom 472 705 5 0 0 0 - - -;
#X floatatom 175 623 5 0 0 0 - - -;
#X obj 214 571 bng 15 250 50 0 empty empty empty 17 7 0 10 -262144
-1 -1;
#X msg 273 389 1;
#X msg 379 398 1;
#X msg 273 411 0;
#X msg 379 420 0;
#X obj 273 271 f;
#X obj 386 270 f;
#X obj 273 315 moses;
#X obj 309 286 bng 15 250 50 0 empty empty empty 17 7 0 10 -262144
-1 -1;
#X obj 419 669 bng 15 250 50 0 empty empty empty 17 7 0 10 -262144
-1 -1;
#X obj 419 614 spigot;
#X obj 494 613 spigot;
#X obj 494 637 + 1;
#X obj 214 520 - 1;
#X floatatom 129 639 5 0 0 0 - - -;
#X floatatom 129 484 5 0 0 0 - - -;
#X floatatom 603 504 5 0 0 0 - - -;
#X floatatom 386 248 5 0 0 0 - - -;
#X floatatom 273 248 5 0 0 0 - - -;
#X text 455 351 si le end est avant le begin;
#X obj 273 225 r track_\$1_begin;
#X obj 386 225 r track_\$1_end;
#X obj 214 477 r track_\$1_end;
#X obj 229 548 r track_\$1_begin;
#X obj 175 662 send track_\$1_pas;
#X obj 472 732 send track_\$1_pas;
#X obj 512 488 r track_\$1_length;
#X obj 542 554 r track_\$1_end;
#X obj 500 673 r track_\$1_begin;
#X obj 858 109 r track_\$1_pas;
#X obj 91 92 r track_\$1_temps;
#X connect 0 0 3 0;
#X connect 2 0 0 0;
#X connect 3 0 6 0;
#X connect 4 0 9 0;
#X connect 5 0 0 2;
#X connect 5 0 2 0;
#X connect 6 0 7 0;
#X connect 7 0 8 0;
#X connect 9 0 0 1;
#X connect 9 0 5 0;
#X connect 9 1 6 0;
#X connect 9 1 5 1;
#X connect 10 0 11 0;
#X connect 10 0 14 1;
#X connect 11 0 12 0;
#X connect 12 1 15 0;
#X connect 14 0 13 0;
#X connect 15 0 17 0;
#X connect 15 0 18 0;
#X connect 16 0 19 0;
#X connect 17 0 14 0;
#X connect 19 0 17 1;
#X connect 20 0 26 0;
#X connect 21 0 20 0;
#X connect 22 0 24 0;
#X connect 22 0 21 1;
#X connect 23 0 21 0;
#X connect 23 0 24 1;
#X connect 24 0 20 0;
#X connect 25 0 23 0;
#X connect 27 0 45 0;
#X connect 28 0 30 0;
#X connect 29 0 28 0;
#X connect 30 0 27 0;
#X connect 30 1 46 0;
#X connect 31 0 29 0;
#X connect 32 0 59 0;
#X connect 33 0 45 0;
#X connect 34 0 31 0;
#X connect 35 0 38 0;
#X connect 36 0 35 0;
#X connect 37 0 56 0;
#X connect 37 0 42 0;
#X connect 37 0 41 0;
#X connect 37 0 57 0;
#X connect 37 1 40 0;
#X connect 38 0 39 0;
#X connect 39 0 37 0;
#X connect 40 0 38 1;
#X connect 41 0 56 1;
#X connect 42 0 57 1;
#X connect 43 0 44 0;
#X connect 44 0 38 1;
#X connect 44 0 71 0;
#X connect 45 0 60 0;
#X connect 45 0 70 0;
#X connect 46 0 33 0;
#X connect 47 0 31 1;
#X connect 47 0 49 0;
#X connect 48 0 35 1;
#X connect 48 0 50 0;
#X connect 49 0 35 1;
#X connect 50 0 31 1;
#X connect 51 0 53 0;
#X connect 52 0 53 1;
#X connect 52 0 54 0;
#X connect 53 0 47 0;
#X connect 53 1 48 0;
#X connect 54 0 51 0;
#X connect 55 0 43 0;
#X connect 56 0 55 0;
#X connect 57 0 58 0;
#X connect 58 0 44 0;
#X connect 59 0 30 1;
#X connect 60 0 61 0;
#X connect 61 0 29 1;
#X connect 63 0 52 0;
#X connect 64 0 51 0;
#X connect 66 0 64 0;
#X connect 67 0 63 0;
#X connect 68 0 32 0;
#X connect 69 0 33 1;
#X connect 72 0 37 1;
#X connect 72 0 62 0;
#X connect 73 0 41 1;
#X connect 73 0 42 1;
#X connect 74 0 43 1;
#X connect 75 0 10 0;
#X connect 76 0 22 0;
