#N canvas 113 166 852 775 10;
#X obj 426 561 pack f f f, f 41;
#X text 684 533 time;
#X obj 426 522 bng 15 250 50 0 empty empty empty 17 7 0 10 -262144
-1 -1;
#X obj 426 586 route 0;
#X obj 547 413 sample_to_table \$1;
#X obj 669 506 track_pitch_tone \$1;
#X obj 426 621 line~;
#X obj 426 649 tabread4~ mysample_\$1;
#X obj 425 674 outlet~;
#X obj 547 449 track_s_begin_end \$1;
#X floatatom 469 83 5 0 0 0 - - -;
#X obj 437 117 tabread notes_\$1_vol;
#X obj 437 159 route 0;
#X obj 454 306 s pas_\$1;
#X obj 454 278 f;
#X obj 476 190 bng 15 250 50 0 empty empty empty 17 7 0 10 -262144
-1 -1;
#X obj 650 194 r tick_length;
#X obj 476 242 delay;
#X obj 507 203 s track_\$1_clean_vol;
#X floatatom 105 216 5 0 0 0 - - -;
#X obj 105 164 *;
#X floatatom 145 136 5 0 0 0 - - -;
#X floatatom 105 123 5 0 0 0 - - -;
#X obj 145 178 *;
#X obj 105 70 r track_\$1_mesure;
#X obj 109 391 r master_metro;
#X obj 159 457 r track_\$1_begin;
#X obj 109 682 send track_\$1_pas;
#X obj 469 61 r track_\$1_pas;
#X obj 145 101 r track_\$1_temps;
#X obj 109 438 %;
#X floatatom 109 469 5 0 0 0 - - -;
#X obj 105 242 s track_\$1_nbnote;
#X obj 124 364 r track_\$1_loop_length;
#X obj 109 529 +;
#X floatatom 159 514 5 0 0 0 - - -;
#X obj 109 575 moses;
#X floatatom 109 644 5 0 0 0 - - -;
#X floatatom 175 580 5 0 0 0 - - -;
#X obj 175 550 r track_\$1_nbnote;
#X obj 136 611 -;
#X obj 281 364 r track_\$1_end;
#X obj 159 485 - 1;
#X floatatom 218 380 5 0 0 0 - - -;
#X floatatom 666 263 5 0 0 0 - - -;
#X obj 650 226 / 16;
#X connect 0 0 3 0;
#X connect 2 0 0 0;
#X connect 3 0 6 0;
#X connect 4 0 9 0;
#X connect 5 0 0 2;
#X connect 5 0 2 0;
#X connect 6 0 7 0;
#X connect 7 0 8 0;
#X connect 9 0 0 1;
#X connect 9 0 5 0;
#X connect 9 1 6 0;
#X connect 9 1 5 1;
#X connect 10 0 11 0;
#X connect 10 0 14 1;
#X connect 11 0 12 0;
#X connect 12 1 15 0;
#X connect 14 0 13 0;
#X connect 15 0 17 0;
#X connect 15 0 18 0;
#X connect 16 0 45 0;
#X connect 17 0 14 0;
#X connect 19 0 32 0;
#X connect 20 0 19 0;
#X connect 21 0 23 0;
#X connect 21 0 20 1;
#X connect 22 0 20 0;
#X connect 22 0 23 1;
#X connect 23 0 19 0;
#X connect 24 0 22 0;
#X connect 25 0 30 0;
#X connect 26 0 42 0;
#X connect 28 0 10 0;
#X connect 29 0 21 0;
#X connect 30 0 31 0;
#X connect 31 0 34 0;
#X connect 33 0 30 1;
#X connect 33 0 43 0;
#X connect 34 0 36 0;
#X connect 35 0 34 1;
#X connect 36 0 37 0;
#X connect 36 1 40 0;
#X connect 37 0 27 0;
#X connect 38 0 36 1;
#X connect 38 0 40 1;
#X connect 39 0 38 0;
#X connect 40 0 37 0;
#X connect 42 0 35 0;
#X connect 45 0 17 1;
#X connect 45 0 44 0;
