#N canvas 28 118 509 358 10;
#X obj 82 180 pack f f f, f 41;
#X text 340 179 time;
#X obj 82 157 bng 15 250 50 0 empty empty empty 17 7 0 10 -262144 -1
-1;
#X obj 82 205 route 0;
#X obj 203 59 sample_to_table \$1;
#X obj 82 98 r pas_\$1;
#X obj 82 128 delay 1;
#X obj 325 152 track_pitch_tone \$1;
#X obj 82 267 line~;
#X obj 82 295 tabread4~ mysample_\$1;
#X obj 81 320 outlet~;
#X obj 203 95 track_s_begin_end \$1;
#X connect 0 0 3 0;
#X connect 2 0 0 0;
#X connect 3 0 8 0;
#X connect 4 0 11 0;
#X connect 5 0 6 0;
#X connect 6 0 2 0;
#X connect 7 0 0 2;
#X connect 8 0 9 0;
#X connect 9 0 10 0;
#X connect 11 0 0 1;
#X connect 11 0 7 0;
#X connect 11 1 8 0;
#X connect 11 1 7 1;
