#N canvas 490 219 453 591 10;
#X obj 124 264 metro;
#X obj 124 88 tgl 15 0 empty empty empty 17 7 0 10 -262144 -1 -1 1
1;
#X obj 156 192 /;
#X floatatom 156 237 5 0 0 0 - - -, f 5;
#X msg 156 103 60000;
#X obj 170 492 bng 15 250 50 0 empty empty empty 17 7 0 10 -262144
-1 -1;
#X msg 170 517 0;
#X obj 124 491 + 1;
#X floatatom 124 426 5 0 0 0 - - -, f 5;
#X obj 210 177 bng 15 250 50 0 empty empty empty 17 7 0 10 -262144
-1 -1;
#X obj 124 403 0;
#X obj 156 215 / 4;
#X floatatom 170 395 5 0 0 0 - - -, f 5;
#X obj 124 462 moses, f 7;
#X floatatom 210 152 5 0 0 0 - - -, f 5;
#X obj 273 440 send pas;
#X obj 170 360 *;
#X floatatom 269 328 5 0 0 0 - - -, f 5;
#X floatatom 170 328 5 0 0 0 - - -, f 5;
#X obj 269 359 *;
#X obj 66 55 r main_playing;
#X obj 289 135 r main_bpm;
#X obj 170 299 r main_mesure;
#X obj 269 299 r main_temps;
#X obj 170 419 - 1;
#X obj 66 87 route;
#X connect 0 0 10 0;
#X connect 1 0 0 0;
#X connect 1 0 4 0;
#X connect 1 0 25 1;
#X connect 2 0 11 0;
#X connect 3 0 0 1;
#X connect 4 0 2 0;
#X connect 5 0 6 0;
#X connect 6 0 10 1;
#X connect 7 0 10 1;
#X connect 8 0 13 0;
#X connect 8 0 15 0;
#X connect 9 0 2 0;
#X connect 10 0 8 0;
#X connect 11 0 3 0;
#X connect 12 0 24 0;
#X connect 13 0 7 0;
#X connect 13 1 5 0;
#X connect 14 0 9 0;
#X connect 14 0 2 1;
#X connect 16 0 12 0;
#X connect 17 0 19 0;
#X connect 17 0 16 1;
#X connect 18 0 16 0;
#X connect 18 0 19 1;
#X connect 19 0 12 0;
#X connect 20 0 25 0;
#X connect 21 0 14 0;
#X connect 22 0 18 0;
#X connect 23 0 17 0;
#X connect 24 0 13 1;
#X connect 25 1 1 0;
