#N canvas 145 214 996 641 10;
#X obj 79 264 metro;
#X obj 79 88 tgl 15 0 empty empty empty 17 7 0 10 -262144 -1 -1 1 1
;
#X obj 111 192 /;
#X floatatom 111 237 5 0 0 0 - - -;
#X msg 111 103 60000;
#X obj 403 412 + 1;
#X floatatom 403 367 5 0 0 0 - - -;
#X obj 403 344 0;
#X obj 111 215 / 4;
#X floatatom 77 506 5 0 0 0 - - -;
#X obj 403 390 moses, f 7;
#X floatatom 127 141 5 0 0 0 - - -;
#X obj 77 454 *;
#X floatatom 117 426 5 0 0 0 - - -;
#X floatatom 77 413 5 0 0 0 - - -;
#X obj 117 468 *;
#X obj 172 251 send tick_length;
#X obj 127 161 t b f;
#X obj 154 80 bng 15 250 50 0 empty empty empty 17 7 0 10 -262144 -1
-1;
#X obj 206 125 r master_bpm;
#X obj 77 360 r master_mesure;
#X obj 117 388 r master_temps;
#X obj 79 53 r master_play;
#X obj 403 507 send master_pas;
#X obj 501 70 r master_begin;
#X obj 594 70 r master_end;
#X obj 403 281 spigot;
#X obj 442 343 f;
#X obj 442 436 f;
#X obj 79 294 s master_metro;
#X obj 403 234 r master_metro;
#X obj 686 272 spigot;
#X obj 686 222 r master_metro;
#X obj 442 322 r master_end;
#X obj 457 393 r master_begin;
#X obj 686 349 moses;
#X obj 686 299 0;
#X floatatom 686 325 5 0 0 0 - - -;
#X msg 799 365 0;
#X obj 686 433 ==;
#X obj 755 432 !=;
#X obj 770 399 r master_end;
#X obj 647 534 f;
#X obj 728 518 r master_begin;
#X floatatom 700 550 5 0 0 0 - - -;
#X floatatom 403 468 5 0 0 0 - - -;
#X obj 442 416 bng 15 250 50 0 empty empty empty 17 7 0 10 -262144
-1 -1;
#X msg 501 234 1;
#X msg 607 243 1;
#X msg 501 256 0;
#X msg 607 265 0;
#X obj 501 116 f;
#X obj 594 115 f;
#X obj 501 160 moses;
#X obj 537 131 bng 15 250 50 0 empty empty empty 17 7 0 10 -262144
-1 -1;
#X obj 647 514 bng 15 250 50 0 empty empty empty 17 7 0 10 -262144
-1 -1;
#X obj 647 459 spigot;
#X obj 722 458 spigot;
#X obj 722 482 + 1;
#X obj 700 577 send master_pas;
#X obj 442 365 - 1;
#X floatatom 357 484 5 0 0 0 - - -;
#X floatatom 357 329 5 0 0 0 - - -;
#X floatatom 831 349 5 0 0 0 - - -;
#X floatatom 594 93 5 0 0 0 - - -;
#X floatatom 501 93 5 0 0 0 - - -;
#X obj 77 532 s master_length;
#X obj 740 333 r master_length;
#X text 683 196 si le end est avant le begin;
#X connect 0 0 29 0;
#X connect 1 0 0 0;
#X connect 1 0 4 0;
#X connect 2 0 8 0;
#X connect 3 0 0 1;
#X connect 3 0 16 0;
#X connect 4 0 2 0;
#X connect 5 0 45 0;
#X connect 6 0 10 0;
#X connect 7 0 6 0;
#X connect 8 0 3 0;
#X connect 9 0 66 0;
#X connect 10 0 5 0;
#X connect 10 1 46 0;
#X connect 11 0 17 0;
#X connect 12 0 9 0;
#X connect 13 0 15 0;
#X connect 13 0 12 1;
#X connect 14 0 12 0;
#X connect 14 0 15 1;
#X connect 15 0 9 0;
#X connect 17 0 2 0;
#X connect 17 1 2 1;
#X connect 19 0 11 0;
#X connect 20 0 14 0;
#X connect 21 0 13 0;
#X connect 22 0 1 0;
#X connect 22 0 18 0;
#X connect 24 0 65 0;
#X connect 25 0 64 0;
#X connect 26 0 7 0;
#X connect 27 0 60 0;
#X connect 28 0 45 0;
#X connect 30 0 26 0;
#X connect 31 0 36 0;
#X connect 32 0 31 0;
#X connect 33 0 27 0;
#X connect 34 0 28 1;
#X connect 35 0 56 0;
#X connect 35 0 40 0;
#X connect 35 0 39 0;
#X connect 35 0 57 0;
#X connect 35 1 38 0;
#X connect 36 0 37 0;
#X connect 37 0 35 0;
#X connect 38 0 36 1;
#X connect 39 0 56 1;
#X connect 40 0 57 1;
#X connect 41 0 39 1;
#X connect 41 0 40 1;
#X connect 42 0 44 0;
#X connect 43 0 42 1;
#X connect 44 0 36 1;
#X connect 44 0 59 0;
#X connect 45 0 23 0;
#X connect 45 0 61 0;
#X connect 46 0 28 0;
#X connect 47 0 26 1;
#X connect 47 0 49 0;
#X connect 48 0 31 1;
#X connect 48 0 50 0;
#X connect 49 0 31 1;
#X connect 50 0 26 1;
#X connect 51 0 53 0;
#X connect 52 0 53 1;
#X connect 52 0 54 0;
#X connect 53 0 47 0;
#X connect 53 1 48 0;
#X connect 54 0 51 0;
#X connect 55 0 42 0;
#X connect 56 0 55 0;
#X connect 57 0 58 0;
#X connect 58 0 44 0;
#X connect 60 0 10 1;
#X connect 61 0 62 0;
#X connect 62 0 7 1;
#X connect 64 0 52 0;
#X connect 65 0 51 0;
#X connect 67 0 35 1;
#X connect 67 0 63 0;
