#N canvas 291 156 401 557 10;
#X obj 124 264 metro;
#X obj 124 88 tgl 15 0 empty empty empty 17 7 0 10 -262144 -1 -1 0
1;
#X obj 156 192 /;
#X floatatom 156 237 5 0 0 0 - - -, f 5;
#X msg 156 103 60000;
#X obj 170 492 bng 15 250 50 0 empty empty empty 17 7 0 10 -262144
-1 -1;
#X msg 170 517 0;
#X obj 124 491 + 1;
#X floatatom 124 426 5 0 0 0 - - -, f 5;
#X obj 124 403 0;
#X obj 156 215 / 4;
#X floatatom 170 395 5 0 0 0 - - -, f 5;
#X obj 124 462 moses, f 7;
#X floatatom 172 141 5 0 0 0 - - -, f 5;
#X obj 273 440 send pas;
#X obj 170 360 *;
#X floatatom 269 328 5 0 0 0 - - -, f 5;
#X floatatom 170 328 5 0 0 0 - - -, f 5;
#X obj 269 359 *;
#X obj 170 419 - 1;
#X obj 66 87 route;
#X obj 217 251 send tick_length;
#X obj 172 161 t b f;
#X obj 251 124 r bpm;
#X obj 170 299 r mesure;
#X obj 269 299 r temps;
#X obj 66 55 r play;
#X connect 0 0 9 0;
#X connect 1 0 0 0;
#X connect 1 0 4 0;
#X connect 1 0 20 1;
#X connect 2 0 10 0;
#X connect 3 0 0 1;
#X connect 3 0 21 0;
#X connect 4 0 2 0;
#X connect 5 0 6 0;
#X connect 6 0 9 1;
#X connect 7 0 9 1;
#X connect 8 0 12 0;
#X connect 8 0 14 0;
#X connect 9 0 8 0;
#X connect 10 0 3 0;
#X connect 11 0 19 0;
#X connect 12 0 7 0;
#X connect 12 1 5 0;
#X connect 13 0 22 0;
#X connect 15 0 11 0;
#X connect 16 0 18 0;
#X connect 16 0 15 1;
#X connect 17 0 15 0;
#X connect 17 0 18 1;
#X connect 18 0 11 0;
#X connect 19 0 12 1;
#X connect 20 1 1 0;
#X connect 22 0 2 0;
#X connect 22 1 2 1;
#X connect 23 0 13 0;
#X connect 24 0 17 0;
#X connect 25 0 16 0;
#X connect 26 0 20 0;
