#N canvas 256 479 557 423 10;
#X obj 313 340 outlet~;
#X obj 65 96 r track_\$1_solo;
#X obj 65 145 s solo;
#X obj 313 86 r solo;
#X obj 65 121 pack f \$1;
#X obj 313 108 unpack f f;
#X obj 380 134 select \$1;
#X obj 313 203 spigot, f 10;
#X msg 440 161 1;
#X msg 380 162 0;
#X text 63 50 send msg to other track;
#X text 311 44 receive msg from other track, f 17;
#X floatatom 313 137 5 0 0 0 - - -, f 5;
#X obj 313 312 line~;
#X obj 313 288 pack f 50;
#X obj 313 231 select 0 1;
#X msg 313 253 1;
#X msg 346 253 0;
#X obj 198 236 loadbang;
#X connect 1 0 4 0;
#X connect 3 0 5 0;
#X connect 4 0 2 0;
#X connect 5 0 12 0;
#X connect 5 1 6 0;
#X connect 6 0 9 0;
#X connect 6 1 8 0;
#X connect 7 0 15 0;
#X connect 8 0 7 1;
#X connect 9 0 7 1;
#X connect 12 0 7 0;
#X connect 13 0 0 0;
#X connect 14 0 13 0;
#X connect 15 0 16 0;
#X connect 15 1 17 0;
#X connect 16 0 14 0;
#X connect 17 0 14 0;
#X connect 18 0 16 0;
