#N canvas 210 294 450 379 10;
#X obj 60 343 outlet~;
#X obj 138 343 outlet~;
#X obj 137 261 *~;
#X obj 59 261 *~;
#X obj 271 245 mute_box;
#X obj 58 99 inlet~;
#X obj 136 99 inlet~;
#X obj 271 149 r track_\$1_mute;
#X obj 137 201 *~;
#X obj 59 201 *~;
#X obj 271 185 mute_box;
#X obj 271 209 r track_\$1_note_mute;
#X connect 2 0 1 0;
#X connect 3 0 0 0;
#X connect 4 0 2 1;
#X connect 4 0 3 1;
#X connect 5 0 9 0;
#X connect 6 0 8 0;
#X connect 7 0 10 0;
#X connect 8 0 2 0;
#X connect 9 0 3 0;
#X connect 10 0 8 1;
#X connect 10 0 9 1;
#X connect 11 0 4 0;
