#N canvas 685 147 422 669 10;
#X floatatom 103 155 8 0 0 0 - - -;
#X obj 103 123 / 44.1;
#X obj 88 478 int;
#X obj 88 530 f;
#X obj 88 503 +;
#X obj 106 457 bng 15 250 50 0 empty empty empty 17 7 0 10 -262144
-1 -1;
#X floatatom 158 442 5 0 0 0 - - -;
#X obj 142 285 / 10;
#X obj 126 230 bng 15 250 50 0 empty empty empty 17 7 0 10 -262144
-1 -1;
#X floatatom 157 215 5 0 0 0 - - -;
#X obj 142 308 *;
#X obj 88 405 +;
#X floatatom 88 430 8 0 0 0 - - -;
#X obj 88 355 f;
#X obj 126 257 f;
#X obj 88 324 bng 15 250 50 0 empty empty empty 17 7 0 10 -262144 -1
-1;
#X floatatom 88 560 8 0 0 0 - - -;
#X obj 103 49 -;
#X obj 103 74 abs;
#X obj 103 11 inlet;
#X obj 57 12 inlet;
#X obj 88 597 outlet;
#X floatatom 224 130 5 0 0 0 - - -;
#X obj 224 106 r track_\$1_note_pitch;
#X obj 258 159 r track_\$1_pitch;
#X obj 224 199 +;
#X floatatom 258 184 5 0 0 0 - - -;
#X floatatom 221 357 5 0 0 0 - - -;
#X obj 221 426 +;
#X floatatom 255 411 5 0 0 0 - - -;
#X obj 221 333 r track_\$1_note_tone;
#X obj 255 386 r track_\$1_tone;
#X floatatom 103 99 15 0 0 0 - - -;
#X connect 0 0 13 1;
#X connect 0 0 14 1;
#X connect 1 0 0 0;
#X connect 2 0 4 0;
#X connect 3 0 16 0;
#X connect 4 0 3 0;
#X connect 5 0 2 0;
#X connect 6 0 4 1;
#X connect 6 0 5 0;
#X connect 7 0 10 0;
#X connect 8 0 14 0;
#X connect 9 0 10 1;
#X connect 9 0 8 0;
#X connect 10 0 11 1;
#X connect 10 0 15 0;
#X connect 11 0 12 0;
#X connect 12 0 2 0;
#X connect 13 0 11 0;
#X connect 14 0 7 0;
#X connect 15 0 13 0;
#X connect 16 0 21 0;
#X connect 17 0 18 0;
#X connect 18 0 32 0;
#X connect 19 0 17 0;
#X connect 20 0 17 1;
#X connect 22 0 25 0;
#X connect 23 0 22 0;
#X connect 24 0 26 0;
#X connect 25 0 9 0;
#X connect 26 0 25 1;
#X connect 27 0 28 0;
#X connect 28 0 6 0;
#X connect 29 0 28 1;
#X connect 30 0 27 0;
#X connect 31 0 29 0;
#X connect 32 0 1 0;
