#N canvas 52 141 446 508 10;
#X obj 113 296 print done;
#X obj 60 273 textfile;
#X msg 128 255 bang;
#X msg 128 220 rewind;
#X obj 60 71 bng 15 250 50 0 empty empty empty 17 7 0 10 -262144 -1
-1;
#X obj 60 48 r track_\$1;
#X obj 156 100 \$1;
#X obj 156 121 makefilename track_%d;
#X obj 223 85 bng 15 250 50 0 empty empty empty 17 7 0 10 -262144 -1
-1;
#X msg 60 189 read /home/pi/btm/set/track_1.txt;
#X msg 156 142 set read /home/pi/btm/set/\$1.txt;
#X obj 156 48 loadbang;
#X obj 60 329 list;
#X msg 60 363 \; \$1_\$2 \$3;
#X connect 1 0 2 0;
#X connect 1 0 12 0;
#X connect 1 1 0 0;
#X connect 2 0 1 0;
#X connect 3 0 1 0;
#X connect 3 0 2 0;
#X connect 4 0 9 0;
#X connect 5 0 4 0;
#X connect 6 0 7 0;
#X connect 7 0 10 0;
#X connect 8 0 6 0;
#X connect 9 0 1 0;
#X connect 9 0 3 0;
#X connect 10 0 9 0;
#X connect 11 0 6 0;
#X connect 12 0 13 0;
