#N canvas 452 246 416 369 10;
#X obj 62 192 *~;
#X obj 140 192 *~;
#X obj 61 253 *~;
#X obj 139 253 *~;
#X obj 231 176 pan_box;
#X obj 230 235 pan_box;
#X obj 63 49 inlet~;
#X obj 138 297 outlet~;
#X obj 61 297 outlet~;
#X obj 230 212 r track_\$1_note_pan;
#X obj 231 153 r track_\$1_pan;
#X connect 0 0 2 0;
#X connect 1 0 3 0;
#X connect 2 0 8 0;
#X connect 3 0 7 0;
#X connect 4 0 0 1;
#X connect 4 1 1 1;
#X connect 5 0 2 1;
#X connect 5 1 3 1;
#X connect 6 0 1 1;
#X connect 6 0 0 0;
#X connect 9 0 5 0;
#X connect 10 0 4 0;
