#N canvas 232 526 450 300 10;
#X obj 105 48 inlet~;
#X obj 179 75 r track_\$1_lpf;
#X obj 180 103 r track_\$1_note_lpf;
#X obj 180 131 r track_\$1_hpf;
#X obj 180 159 r track_\$1_note_hpf;
#X obj 104 147 hip~;
#X floatatom 337 92 5 0 0 0 - - -;
#X floatatom 337 119 5 0 0 0 - - -;
#X floatatom 337 147 5 0 0 0 - - -;
#X floatatom 337 175 5 0 0 0 - - -;
#X obj 104 175 hip~;
#X obj 104 91 lop~;
#X obj 105 119 lop~;
#X obj 105 207 outlet~;
#X connect 0 0 11 0;
#X connect 1 0 6 0;
#X connect 1 0 11 1;
#X connect 2 0 7 0;
#X connect 2 0 12 1;
#X connect 3 0 5 1;
#X connect 3 0 8 0;
#X connect 4 0 9 0;
#X connect 4 0 10 1;
#X connect 5 0 10 0;
#X connect 10 0 13 0;
#X connect 11 0 12 0;
#X connect 12 0 5 0;
