#N canvas 574 397 378 367 10;
#X obj 157 222 pack f 50;
#X obj 50 263 *~;
#X obj 49 68 inlet~;
#X obj 51 318 outlet~;
#X obj 243 158 r tick_length;
#X floatatom 243 207 5 0 0 0 - - -;
#X obj 172 80 r track_\$1_vol;
#X obj 157 130 +;
#X obj 157 47 r track_\$1_note_vol;
#X obj 107 298 print track\$1notevol;
#X obj 157 247 line~;
#X obj 69 175 r track_\$1_clean_vol;
#X msg 69 206 0;
#X obj 243 184 / 8;
#X connect 0 0 10 0;
#X connect 0 0 9 0;
#X connect 1 0 3 0;
#X connect 2 0 1 0;
#X connect 4 0 13 0;
#X connect 5 0 0 1;
#X connect 6 0 7 1;
#X connect 7 0 0 0;
#X connect 8 0 7 0;
#X connect 10 0 1 1;
#X connect 11 0 12 0;
#X connect 12 0 0 0;
#X connect 13 0 5 0;
