#N canvas 743 315 378 367 10;
#X obj 157 214 pack f 50;
#X obj 50 263 *~;
#X obj 49 68 inlet~;
#X obj 51 318 outlet~;
#X obj 243 150 r tick_length;
#X floatatom 243 199 5 0 0 0 - - -;
#X obj 197 55 r track_\$1_vol;
#X obj 157 130 +;
#X obj 157 22 r track_\$1_note_vol;
#X obj 107 298 print track\$1notevol;
#X obj 157 247 line~;
#X obj 69 169 r track_\$1_clean_vol;
#X msg 69 198 0;
#X floatatom 157 84 5 0 0 0 - - -;
#X floatatom 197 84 5 0 0 0 - - -;
#X obj 106 191 bng 15 250 50 0 empty empty empty 17 7 0 10 -262144
-1 -1;
#X obj 243 176 / 16;
#X connect 0 0 10 0;
#X connect 0 0 9 0;
#X connect 1 0 3 0;
#X connect 2 0 1 0;
#X connect 4 0 16 0;
#X connect 5 0 0 1;
#X connect 6 0 14 0;
#X connect 7 0 0 0;
#X connect 8 0 13 0;
#X connect 10 0 1 1;
#X connect 11 0 12 0;
#X connect 11 0 15 0;
#X connect 12 0 0 0;
#X connect 13 0 7 0;
#X connect 14 0 7 1;
#X connect 16 0 5 0;
