#N canvas 2 73 1250 943 10;
#X floatatom 75 201 5 0 0 0 - - -, f 5;
#X obj 75 223 bng 15 250 50 0 empty empty empty 17 7 0 10 -262144 -1
-1;
#X obj 159 424 line~;
#X floatatom 528 227 5 0 0 0 - - -, f 5;
#X obj 528 201 / 44.1;
#X obj 528 249 int;
#X obj 244 328 pack f f f, f 41;
#X obj 528 301 f;
#X text 557 302 time;
#X text 218 218 end, f 7;
#X obj 159 577 *~;
#X obj 148 184 soundfiler;
#X obj 148 129 pack s s;
#X msg 148 158 read -resize \$1 \$2;
#X obj 244 298 bng 15 250 50 0 empty empty empty 17 7 0 10 -262144
-1 -1;
#X obj 254 89 \$1;
#X msg 75 285 \; \$1 normalize \;;
#X obj 75 242 \$1;
#X obj 254 67 loadbang;
#X obj 327 41 table mysample_\$1;
#X obj 327 67 table note;
#X obj 75 265 makefilename mysample_%d;
#X obj 159 452 tabread4~ mysample_\$1;
#X obj 254 112 makefilename mysample_%d;
#X obj 845 290 print done;
#X obj 792 267 textfile;
#X msg 860 249 bang;
#X msg 860 214 rewind;
#X obj 792 300 list;
#X msg 792 183 read /home/pi/btm/saves/13-4_22:19/track_1.txt;
#X obj 926 317 list length;
#X floatatom 926 350 5 0 0 0 - - -, f 5;
#X obj 792 89 list;
#X msg 792 113 set read \$1;
#X obj 792 42 r path;
#X obj 802 159 bng 15 250 50 0 empty empty empty 17 7 0 10 -262144
-1 -1;
#X obj 792 64 makefilename %s/track_\$1.txt;
#X obj 802 136 r track_\$1;
#X obj 148 41 receive track_\$1_sample;
#X msg 792 340 \; \$1_\$2 \$3;
#X obj 161 845 outlet~;
#X obj 237 577 *~;
#X obj 239 845 outlet~;
#X obj 295 561 line~;
#X obj 844 664 print done;
#X obj 791 637 textfile;
#X msg 859 619 bang;
#X msg 859 584 rewind;
#X msg 791 553 read /home/pi/btm/saves/13-4_22:19/notes_1.txt;
#X obj 791 459 list;
#X msg 791 483 set read \$1;
#X obj 791 412 r path;
#X obj 801 529 bng 15 250 50 0 empty empty empty 17 7 0 10 -262144
-1 -1;
#X obj 791 434 makefilename %s/notes_\$1.txt;
#X obj 801 506 r pas;
#X obj 840 719 r pas;
#X obj 937 749 print selected_note_\$1;
#X obj 791 693 route notes_\$1;
#X obj 791 736 route;
#X obj 791 763 unpack f f f f f;
#X obj 295 537 pack f 50;
#X obj 1042 780 bng 15 250 50 0 empty empty empty 17 7 0 10 -262144
-1 -1;
#X obj 1042 831 s play_note_\$1;
#X obj 649 288 r play_note_\$1;
#X obj 244 382 route 0;
#X obj 791 790 s vol_note_\$1;
#X obj 295 510 r vol_note_\$1;
#X obj 415 455 r pan_note_\$1;
#X obj 818 815 s pan_note_\$1;
#X obj 159 494 *~;
#X obj 237 494 *~;
#X obj 297 670 line~;
#X obj 297 646 pack f 50;
#X obj 160 602 *~;
#X obj 238 602 *~;
#X obj 297 619 r track_\$1_vol;
#X obj 238 686 *~;
#X obj 160 686 *~;
#X obj 417 585 pan_box;
#X obj 417 562 r track_\$1_pan;
#X obj 419 620 r track_\$1_mute;
#X obj 419 644 select 0;
#X msg 419 667 1;
#X msg 472 667 0;
#X obj 419 720 line~;
#X obj 419 696 pack f 50;
#X obj 238 736 *~;
#X obj 160 736 *~;
#X obj 545 1057 vsl 15 128 0 127 0 0 empty empty empty 0 -9 0 10 -262144
-1 -1 0 1;
#X obj 415 478 pan_box;
#X obj 296 772 solo_box \$1;
#X obj 238 788 *~;
#X obj 160 788 *~;
#X obj 159 386 0;
#X obj 528 274 +;
#X obj 845 839 s speed_note_\$1;
#X obj 592 257 r speed_note_\$1;
#X obj 592 278 bng 15 250 50 0 empty empty empty 17 7 0 10 -262144
-1 -1;
#X obj 873 862 s begin_note_\$1;
#X obj 900 886 s end_note_\$1;
#X obj 288 215 int;
#X obj 385 217 bng 15 250 50 0 empty empty empty 17 7 0 10 -262144
-1 -1;
#X obj 385 196 r end_note_\$1;
#X floatatom 288 263 5 0 0 0 - - -, f 5;
#X obj 288 240 -;
#X obj 21 369 r begin_note_\$1;
#X floatatom 21 397 5 0 0 0 - - -, f 5;
#X obj 348 277 -;
#X obj 649 311 delay 25;
#X obj 328 166 / 100;
#X floatatom 328 188 5 0 0 0 - - -, f 5;
#X obj 328 213 *;
#X floatatom 328 241 5 0 0 0 - - -, f 5;
#X connect 0 0 1 0;
#X connect 0 0 100 0;
#X connect 1 0 17 0;
#X connect 2 0 22 0;
#X connect 3 0 5 0;
#X connect 4 0 3 0;
#X connect 5 0 94 0;
#X connect 6 0 64 0;
#X connect 7 0 6 2;
#X connect 10 0 73 0;
#X connect 11 0 0 0;
#X connect 12 0 13 0;
#X connect 13 0 11 0;
#X connect 14 0 6 0;
#X connect 15 0 23 0;
#X connect 17 0 21 0;
#X connect 18 0 15 0;
#X connect 21 0 16 0;
#X connect 22 0 69 0;
#X connect 22 0 70 0;
#X connect 23 0 12 1;
#X connect 25 0 26 0;
#X connect 25 0 28 0;
#X connect 25 1 24 0;
#X connect 26 0 25 0;
#X connect 27 0 25 0;
#X connect 27 0 26 0;
#X connect 28 0 30 0;
#X connect 28 0 39 0;
#X connect 29 0 25 0;
#X connect 29 0 27 0;
#X connect 30 0 31 0;
#X connect 32 0 33 0;
#X connect 33 0 29 0;
#X connect 34 0 36 0;
#X connect 35 0 29 0;
#X connect 36 0 32 0;
#X connect 37 0 35 0;
#X connect 38 0 12 0;
#X connect 41 0 74 0;
#X connect 43 0 10 1;
#X connect 43 0 41 1;
#X connect 45 0 46 0;
#X connect 45 0 57 0;
#X connect 46 0 45 0;
#X connect 47 0 45 0;
#X connect 47 0 46 0;
#X connect 48 0 45 0;
#X connect 48 0 47 0;
#X connect 49 0 50 0;
#X connect 50 0 48 0;
#X connect 51 0 53 0;
#X connect 52 0 48 0;
#X connect 53 0 49 0;
#X connect 54 0 52 0;
#X connect 55 0 58 1;
#X connect 57 0 58 0;
#X connect 58 0 59 0;
#X connect 59 0 61 0;
#X connect 59 0 65 0;
#X connect 59 1 68 0;
#X connect 59 2 95 0;
#X connect 59 3 98 0;
#X connect 59 4 99 0;
#X connect 60 0 43 0;
#X connect 61 0 62 0;
#X connect 63 0 108 0;
#X connect 64 0 2 0;
#X connect 66 0 60 0;
#X connect 67 0 89 0;
#X connect 69 0 10 0;
#X connect 70 0 41 0;
#X connect 71 0 76 1;
#X connect 71 0 77 1;
#X connect 72 0 71 0;
#X connect 73 0 77 0;
#X connect 74 0 76 0;
#X connect 75 0 72 0;
#X connect 76 0 86 0;
#X connect 77 0 87 0;
#X connect 78 0 73 1;
#X connect 78 1 74 1;
#X connect 79 0 78 0;
#X connect 80 0 81 0;
#X connect 81 0 82 0;
#X connect 81 1 83 0;
#X connect 82 0 85 0;
#X connect 83 0 85 0;
#X connect 84 0 86 1;
#X connect 84 0 87 1;
#X connect 85 0 84 0;
#X connect 86 0 91 0;
#X connect 87 0 92 0;
#X connect 89 0 69 1;
#X connect 89 1 70 1;
#X connect 90 0 92 1;
#X connect 90 0 91 1;
#X connect 91 0 42 0;
#X connect 92 0 40 0;
#X connect 93 0 2 0;
#X connect 94 0 7 0;
#X connect 96 0 94 1;
#X connect 96 0 97 0;
#X connect 97 0 5 0;
#X connect 100 0 104 0;
#X connect 100 0 109 0;
#X connect 102 0 101 0;
#X connect 102 0 111 1;
#X connect 103 0 107 0;
#X connect 104 0 103 0;
#X connect 105 0 106 0;
#X connect 105 0 93 0;
#X connect 106 0 107 1;
#X connect 107 0 4 0;
#X connect 107 0 6 1;
#X connect 108 0 6 0;
#X connect 109 0 110 0;
#X connect 110 0 111 0;
#X connect 111 0 112 0;
