#N canvas 378 201 471 491 10;
#X obj 99 319 print done;
#X obj 46 296 textfile;
#X msg 114 278 bang;
#X msg 114 243 rewind;
#X obj 46 329 list;
#X msg 46 212 read /home/pi/btm/saves/14-4_22:23/track_1.txt;
#X obj 180 346 list length;
#X floatatom 180 379 5 0 0 0 - - -, f 5;
#X obj 56 188 bng 15 250 50 0 empty empty empty 17 7 0 10 -262144 -1
-1;
#X obj 56 165 r track_\$1;
#X msg 46 369 \; \$1_\$2 \$3;
#X obj 46 66 r path;
#X obj 46 114 list;
#X msg 46 138 set read \$1;
#X obj 46 89 makefilename %s/track_\$1.txt;
#X connect 1 0 2 0;
#X connect 1 0 4 0;
#X connect 1 1 0 0;
#X connect 2 0 1 0;
#X connect 3 0 1 0;
#X connect 3 0 2 0;
#X connect 4 0 6 0;
#X connect 4 0 10 0;
#X connect 5 0 1 0;
#X connect 5 0 3 0;
#X connect 6 0 7 0;
#X connect 8 0 5 0;
#X connect 9 0 8 0;
#X connect 11 0 14 0;
#X connect 12 0 13 0;
#X connect 13 0 5 0;
#X connect 14 0 12 0;
