#N canvas 574 307 585 533 10;
#X obj 166 293 line~;
#X obj 166 269 pack f 50;
#X obj 59 338 *~;
#X obj 58 43 inlet~;
#X obj 166 159 line~;
#X obj 166 138 pack f 50;
#X obj 59 175 *~;
#X obj 60 393 outlet~;
#X obj 391 74 r tick_length;
#X floatatom 391 123 5 0 0 0 - - -;
#X obj 391 100 / 4;
#X obj 166 114 r track_\$1_note_vol;
#X obj 166 245 r track_\$1_vol;
#X connect 0 0 2 1;
#X connect 1 0 0 0;
#X connect 2 0 7 0;
#X connect 3 0 6 0;
#X connect 4 0 6 1;
#X connect 5 0 4 0;
#X connect 6 0 2 0;
#X connect 8 0 10 0;
#X connect 9 0 5 1;
#X connect 9 0 1 1;
#X connect 10 0 9 0;
#X connect 11 0 5 0;
#X connect 12 0 1 0;
