#N canvas 617 255 431 588 10;
#X obj 81 44 int;
#X obj 66 379 -;
#X obj 208 60 / 100;
#X floatatom 208 82 5 0 0 0 - - -;
#X obj 112 294 *;
#X floatatom 112 238 5 0 0 0 - - -;
#X obj 112 317 f;
#X obj 66 405 abs;
#X floatatom 193 308 5 0 0 0 - - -;
#X floatatom 193 381 8 0 0 0 - - -;
#X obj 193 354 f;
#X obj 193 331 *;
#X obj 112 265 -;
#X obj 81 19 inlet;
#X obj 66 454 outlet;
#X obj 193 408 outlet;
#X obj 96 112 r track_\$1_note_s_end;
#X obj 139 139 r track_\$1_s_end;
#X obj 112 195 +;
#X obj 193 249 +;
#X obj 193 171 r track_\$1_note_s_begin;
#X obj 233 193 r track_\$1_s_begin;
#X floatatom 112 345 10 0 0 0 - - -;
#X floatatom 139 166 5 0 0 0 - - -;
#X floatatom 96 165 5 0 0 0 - - -;
#X floatatom 66 431 10 0 0 0 - - -;
#X floatatom 150 35 15 0 0 0 - - -;
#X floatatom 193 212 5 0 0 0 - - -;
#X floatatom 233 224 5 0 0 0 - - -;
#X connect 0 0 2 0;
#X connect 0 0 1 1;
#X connect 1 0 7 0;
#X connect 2 0 3 0;
#X connect 3 0 4 1;
#X connect 3 0 11 1;
#X connect 4 0 6 0;
#X connect 5 0 12 0;
#X connect 6 0 1 0;
#X connect 6 0 22 0;
#X connect 7 0 25 0;
#X connect 8 0 11 0;
#X connect 9 0 15 0;
#X connect 10 0 9 0;
#X connect 11 0 10 0;
#X connect 12 0 4 0;
#X connect 13 0 0 0;
#X connect 13 0 26 0;
#X connect 16 0 24 0;
#X connect 17 0 23 0;
#X connect 18 0 5 0;
#X connect 19 0 8 0;
#X connect 19 0 12 1;
#X connect 20 0 27 0;
#X connect 21 0 28 0;
#X connect 23 0 18 1;
#X connect 24 0 18 0;
#X connect 25 0 14 0;
#X connect 27 0 19 0;
#X connect 28 0 19 1;
