#N canvas 389 167 608 790 10;
#X obj 89 370 print done;
#X obj 36 339 textfile;
#X msg 144 321 bang;
#X msg 144 282 rewind;
#X obj 36 403 list;
#X msg 36 644 \; \$1 \$2;
#X obj 36 205 bng 15 250 50 0 empty empty empty 17 7 0 10 -262144 -1
-1;
#X msg 36 241 read /home/pi/btm/saves/12-4_16:12/notes_1.txt;
#X obj 144 60 receive python;
#X obj 135 420 list length;
#X floatatom 135 453 5 0 0 0 - - -, f 5;
#X obj 11 526 print loadtext;
#X obj 36 488 unpack s l;
#X obj 144 101 route load set;
#X msg 144 188;
#X msg 161 127 set \$0;
#X connect 1 0 2 0;
#X connect 1 0 4 0;
#X connect 1 1 0 0;
#X connect 2 0 1 0;
#X connect 3 0 1 0;
#X connect 3 0 2 0;
#X connect 4 0 9 0;
#X connect 4 0 12 0;
#X connect 4 0 11 0;
#X connect 6 0 7 0;
#X connect 7 0 1 0;
#X connect 7 0 3 0;
#X connect 8 0 13 0;
#X connect 9 0 10 0;
#X connect 13 0 14 0;
#X connect 14 0 7 0;
#X connect 14 0 6 0;
