#N canvas 584 273 326 234 10;
#X obj 64 119 oscparse;
#X obj 64 86 netreceive -u -b;
#X msg 64 60 listen 12000;
#X obj 64 25 loadbang;
#X obj 142 26 bng 15 250 50 0 empty empty empty 17 7 0 10 -262144 -1
-1;
#X obj 64 147 route list;
#X obj 64 176 send python;
#X connect 0 0 5 0;
#X connect 1 0 0 0;
#X connect 2 0 1 0;
#X connect 3 0 2 0;
#X connect 4 0 2 0;
#X connect 5 0 6 0;
